<?xml version="1.0" encoding="UTF-8" standalone="no"?>
<!DOCTYPE svg PUBLIC "-//W3C//DTD SVG 1.1//EN" "http://www.w3.org/Graphics/SVG/1.1/DTD/svg11.dtd">
<svg width="100%" height="100%" viewBox="0 0 544 317" version="1.1" xmlns="http://www.w3.org/2000/svg" xmlns:xlink="http://www.w3.org/1999/xlink" xml:space="preserve" style="fill-rule:evenodd;clip-rule:evenodd;stroke-linecap:round;stroke-linejoin:round;stroke-miterlimit:1.5;">
    <g transform="matrix(1,0,0,1,-409.304,-75.0892)">
        <g transform="matrix(1.5109,0,0,1.34086,54.1878,29.6938)">
            <rect x="347.481" y="41.526" width="95.976" height="90.362" style="fill:rgb(231,173,82);stroke:rgb(231,173,82);stroke-width:1.4px;"/>
        </g>
        <g transform="matrix(1.5109,0,0,1.69315,189.188,167.065)">
            <rect x="347.481" y="41.526" width="95.976" height="90.362" style="fill:rgb(231,173,82);stroke:rgb(231,173,82);stroke-width:1.25px;"/>
        </g>
        <g transform="matrix(1.5109,0,0,0.634317,-80.1005,273.578)">
            <rect x="347.481" y="41.526" width="95.976" height="90.362" style="fill:rgb(231,173,82);stroke:rgb(231,173,82);stroke-width:1.73px;"/>
        </g>
        <g transform="matrix(1,0,0,1,250.073,40.801)">
            <text x="332.511px" y="62.704px" style="font-family:'ArialMT', 'Arial', sans-serif;font-size:16px;fill:none;">addr: 0x069db8</text>
            <text x="332.511px" y="62.704px" style="font-family:'ArialMT', 'Arial', sans-serif;font-size:16px;fill:white;">addr: 0x069db8</text>
        </g>
        <g transform="matrix(1,0,0,1,385.073,192.801)">
            <text x="332.511px" y="62.704px" style="font-family:'ArialMT', 'Arial', sans-serif;font-size:16px;fill:none;">addr: 0x2f4b91</text>
            <text x="332.511px" y="62.704px" style="font-family:'ArialMT', 'Arial', sans-serif;font-size:16px;fill:white;">addr: 0x2f4b91</text>
        </g>
        <g transform="matrix(1,0,0,1,115.784,255.346)">
            <text x="332.511px" y="62.704px" style="font-family:'ArialMT', 'Arial', sans-serif;font-size:16px;fill:none;">addr: 0x012345</text>
            <text x="332.511px" y="62.704px" style="font-family:'ArialMT', 'Arial', sans-serif;font-size:16px;fill:white;">addr: 0x012345</text>
        </g>
        <g transform="matrix(1.03493,0,0,1.11488,293.952,39.3418)">
            <rect x="356.286" y="63.807" width="148.744" height="28.808" style="fill:white;stroke:rgb(231,173,82);stroke-width:1.86px;"/>
        </g>
        <g transform="matrix(1.03493,0,0,1.11488,428.952,191.342)">
            <rect x="356.286" y="63.807" width="148.744" height="28.808" style="fill:white;stroke:rgb(231,173,82);stroke-width:1.86px;"/>
        </g>
        <g transform="matrix(1.03493,0,0,1.11488,159.664,253.887)">
            <rect x="356.286" y="63.807" width="148.744" height="28.808" style="fill:white;stroke:rgb(231,173,82);stroke-width:1.86px;"/>
        </g>
        <g transform="matrix(1.03493,0,0,1.11488,293.952,71.3418)">
            <rect x="356.286" y="63.807" width="148.744" height="28.808" style="fill:white;stroke:rgb(231,173,82);stroke-width:1.86px;"/>
        </g>
        <g transform="matrix(1.03493,0,0,1.11488,428.952,223.342)">
            <rect x="356.286" y="63.807" width="148.744" height="28.808" style="fill:white;stroke:rgb(231,173,82);stroke-width:1.86px;"/>
        </g>
        <g transform="matrix(1.03493,0,0,1.11488,293.952,103.342)">
            <rect x="356.286" y="63.807" width="148.744" height="28.808" style="fill:white;stroke:rgb(231,173,82);stroke-width:1.86px;"/>
        </g>
        <g transform="matrix(1.03493,0,0,1.11488,428.952,255.342)">
            <rect x="356.286" y="63.807" width="148.744" height="28.808" style="fill:white;stroke:rgb(231,173,82);stroke-width:1.86px;"/>
        </g>
        <g transform="matrix(1.03493,0,0,1.11488,428.952,287.342)">
            <rect x="356.286" y="63.807" width="148.744" height="28.808" style="fill:white;stroke:rgb(231,173,82);stroke-width:1.86px;"/>
        </g>
        <g transform="matrix(1,0,0,1,273.534,43.0144)">
            <text x="397.716px" y="87.155px" style="font-family:'Courier';font-size:16px;fill:none;">&quot;Array&quot;</text>
            <text x="397.716px" y="87.155px" style="font-family:'Courier';font-size:16px;fill:rgb(231,173,82);">&quot;Array&quot;</text>
        </g>
        <g transform="matrix(1,0,0,1,408.534,195.014)">
            <text x="397.716px" y="87.155px" style="font-family:'Courier';font-size:16px;fill:none;">&quot;Array&quot;</text>
            <text x="397.716px" y="87.155px" style="font-family:'Courier';font-size:16px;fill:rgb(231,173,82);">&quot;Array&quot;</text>
        </g>
        <g transform="matrix(1,0,0,1,139.245,257.559)">
            <text x="397.716px" y="87.155px" style="font-family:'Courier';font-size:16px;fill:none;">2</text>
            <text x="397.716px" y="87.155px" style="font-family:'Courier';font-size:16px;fill:rgb(231,173,82);">2</text>
        </g>
        <g transform="matrix(1,0,0,1,273.534,74.0144)">
            <text x="397.716px" y="87.155px" style="font-family:'Courier';font-size:16px;fill:none;">ref: 0x2f4b91</text>
            <text x="397.716px" y="87.155px" style="font-family:'Courier';font-size:16px;fill:rgb(231,173,82);">ref: 0x2f4b91</text>
        </g>
        <g transform="matrix(1,0,0,1,408.534,226.014)">
            <text x="397.716px" y="87.155px" style="font-family:'Courier';font-size:16px;fill:none;">ref: 0x693e0c</text>
            <text x="397.716px" y="87.155px" style="font-family:'Courier';font-size:16px;fill:rgb(231,173,82);">ref: 0x693e0c</text>
        </g>
        <g transform="matrix(1,0,0,1,273.534,108.014)">
            <text x="397.716px" y="87.155px" style="font-family:'Courier';font-size:16px;fill:none;">...</text>
            <text x="397.716px" y="87.155px" style="font-family:'Courier';font-size:16px;fill:rgb(231,173,82);">...</text>
        </g>
        <g transform="matrix(1,0,0,1,408.534,260.014)">
            <text x="397.716px" y="87.155px" style="font-family:'Courier';font-size:16px;fill:none;">ref: 0x2f3668</text>
            <text x="397.716px" y="87.155px" style="font-family:'Courier';font-size:16px;fill:rgb(231,173,82);">ref: 0x2f3668</text>
        </g>
        <g transform="matrix(1,0,0,1,408.534,292.014)">
            <text x="397.716px" y="87.155px" style="font-family:'Courier';font-size:16px;fill:none;">...</text>
            <text x="397.716px" y="87.155px" style="font-family:'Courier';font-size:16px;fill:rgb(231,173,82);">...</text>
        </g>
        <g transform="matrix(1,0,0,1,264.995,44.8351)">
            <text x="359.031px" y="85.543px" style="font-family:'Courier';font-size:15px;fill:none;">name</text>
            <text x="359.031px" y="85.543px" style="font-family:'Courier';font-size:15px;fill:white;">name</text>
        </g>
        <g transform="matrix(1,0,0,1,382.995,196.835)">
            <text x="359.031px" y="85.543px" style="font-family:'Courier';font-size:15px;fill:none;">length</text>
            <text x="359.031px" y="85.543px" style="font-family:'Courier';font-size:15px;fill:white;">length</text>
        </g>
        <g transform="matrix(1,0,0,1,113.707,259.38)">
            <text x="359.031px" y="85.543px" style="font-family:'Courier';font-size:15px;fill:none;">length</text>
            <text x="359.031px" y="85.543px" style="font-family:'Courier';font-size:15px;fill:white;">length</text>
        </g>
        <g transform="matrix(1,0,0,1,221.995,76.8351)">
            <text x="359.031px" y="85.543px" style="font-family:'Courier';font-size:15px;fill:none;">prototype</text>
            <text x="359.031px" y="85.543px" style="font-family:'Courier';font-size:15px;fill:white;">prototype</text>
        </g>
        <g transform="matrix(1,0,0,1,407.995,228.835)">
            <text x="359.031px" y="85.543px" style="font-family:'Courier';font-size:15px;fill:none;">map</text>
            <text x="359.031px" y="85.543px" style="font-family:'Courier';font-size:15px;fill:white;">map</text>
        </g>
        <g transform="matrix(1,0,0,1,275.995,108.835)">
            <text x="359.031px" y="85.543px" style="font-family:'Courier';font-size:15px;fill:none;">...</text>
            <text x="359.031px" y="85.543px" style="font-family:'Courier';font-size:15px;fill:white;">...</text>
        </g>
        <g transform="matrix(1,0,0,1,363.995,260.835)">
            <text x="359.031px" y="85.543px" style="font-family:'Courier';font-size:15px;fill:none;">toString</text>
            <text x="359.031px" y="85.543px" style="font-family:'Courier';font-size:15px;fill:white;">toString</text>
        </g>
        <g transform="matrix(1,0,0,1,410.995,292.835)">
            <text x="359.031px" y="85.543px" style="font-family:'Courier';font-size:15px;fill:none;">...</text>
            <text x="359.031px" y="85.543px" style="font-family:'Courier';font-size:15px;fill:white;">...</text>
        </g>
        <g transform="matrix(0.441479,0,0,1,426.873,-77.5028)">
            <path d="M254.446,200.413L254.446,195.855L326.112,195.855L326.112,191.622L340.862,198.134L326.112,204.646L326.112,200.413L254.446,200.413Z" style="fill:rgb(231,173,82);stroke:rgb(231,173,82);stroke-width:2.59px;"/>
        </g>
        <g transform="matrix(0.48792,0,0,1,681.737,-42.8424)">
            <rect x="254.446" y="195.855" width="86.416" height="4.559" style="fill:rgb(231,173,82);stroke:rgb(231,173,82);stroke-width:2.54px;"/>
        </g>
        <g transform="matrix(0.48792,0,0,1,412.737,58.1576)">
            <rect x="254.446" y="195.855" width="86.416" height="4.559" style="fill:rgb(231,173,82);stroke:rgb(231,173,82);stroke-width:2.54px;"/>
        </g>
        <g transform="matrix(5.52478e-17,0.937354,-1,6.245e-17,1043.86,-83.0833)">
            <path d="M254.446,200.413L254.446,195.855L333.915,195.855L333.915,191.622L340.862,198.134L333.915,204.646L333.915,200.413L254.446,200.413Z" style="fill:rgb(231,173,82);stroke:rgb(231,173,82);stroke-width:2.06px;"/>
        </g>
        <g transform="matrix(2.82971e-17,0.480099,-1,6.245e-17,774.859,134.263)">
            <path d="M254.446,200.413L254.446,195.855L327.298,195.855L327.298,191.622L340.862,198.134L327.298,204.646L327.298,200.413L254.446,200.413Z" style="fill:rgb(231,173,82);stroke:rgb(231,173,82);stroke-width:2.55px;"/>
        </g>
        <g transform="matrix(0.643292,0,0,0.529349,282.559,-134.849)">
            <rect x="200.221" y="434.948" width="207.816" height="83.365" style="fill:none;stroke:rgb(231,173,82);stroke-width:3.4px;"/>
        </g>
        <g transform="matrix(0.643292,0,0,0.529349,281.559,5.15113)">
            <rect x="200.221" y="434.948" width="207.816" height="83.365" style="fill:none;stroke:rgb(231,173,82);stroke-width:3.4px;"/>
        </g>
        <g transform="matrix(0.872416,0,0,0.643292,236.583,-183.056)">
            <rect x="200.272" y="402.842" width="88.611" height="30.218" style="fill:rgb(231,173,82);stroke:rgb(231,173,82);stroke-width:2.61px;"/>
        </g>
        <g transform="matrix(0.872416,0,0,0.643292,235.583,-43.0563)">
            <rect x="200.272" y="402.842" width="88.611" height="30.218" style="fill:rgb(231,173,82);stroke:rgb(231,173,82);stroke-width:2.61px;"/>
        </g>
        <g transform="matrix(0.643292,0,0,0.643292,272.715,-188.746)">
            <text x="233.017px" y="481.437px" style="font-family:'Courier';font-size:24px;fill:none;">ref:0x069db8</text>
            <text x="233.017px" y="481.437px" style="font-family:'Courier';font-size:24px;fill:rgb(231,173,82);">ref:0x069db8</text>
        </g>
        <g transform="matrix(0.643292,0,0,0.643292,271.715,-48.7457)">
            <text x="233.017px" y="481.437px" style="font-family:'Courier';font-size:24px;fill:none;">ref:0x012345</text>
            <text x="233.017px" y="481.437px" style="font-family:'Courier';font-size:24px;fill:rgb(231,173,82);">ref:0x012345</text>
        </g>
        <g transform="matrix(0.789304,0,0,0.789304,234.59,-239.203)">
            <text x="229.34px" y="420.514px" style="font-family:'Courier';font-size:30px;fill:none;">Array</text>
            <text x="229.34px" y="420.514px" style="font-family:'Courier';font-size:30px;fill:white;">Array</text>
        </g>
        <g transform="matrix(0.789304,0,0,0.789304,260.59,-99.2029)">
            <text x="229.34px" y="420.514px" style="font-family:'Courier';font-size:30px;fill:none;">x</text>
            <text x="229.34px" y="420.514px" style="font-family:'Courier';font-size:30px;fill:white;">x</text>
        </g>
    </g>
</svg>
