<?xml version="1.0" encoding="UTF-8" standalone="no"?>
<!DOCTYPE svg PUBLIC "-//W3C//DTD SVG 1.1//EN" "http://www.w3.org/Graphics/SVG/1.1/DTD/svg11.dtd">
<svg width="100%" height="100%" viewBox="0 0 747 118" version="1.1" xmlns="http://www.w3.org/2000/svg" xmlns:xlink="http://www.w3.org/1999/xlink" xml:space="preserve" style="fill-rule:evenodd;clip-rule:evenodd;stroke-linecap:round;stroke-linejoin:round;stroke-miterlimit:1.5;">
    <g transform="matrix(1,0,0,1,-44.1899,-48.0922)">
        <g transform="matrix(1.23862,0,0,0.991853,148.02,21.2521)">
            <rect x="347.481" y="41.526" width="95.976" height="90.362" style="fill:rgb(231,173,82);stroke:rgb(231,173,82);stroke-width:1.78px;"/>
        </g>
        <g transform="matrix(1,0,0,1,253.292,18.2917)">
            <text x="332.511px" y="62.704px" style="font-family:'ArialMT', 'Arial', sans-serif;font-size:16px;fill:none;">addr: 0x2f4b91</text>
            <text x="332.511px" y="62.704px" style="font-family:'ArialMT', 'Arial', sans-serif;font-size:16px;fill:white;">addr: 0x2f4b91</text>
        </g>
        <g transform="matrix(1.07249,0,0,1.11488,247.787,16.8326)">
            <rect x="356.286" y="63.807" width="148.744" height="28.808" style="fill:white;stroke:rgb(231,173,82);stroke-width:1.83px;"/>
        </g>
        <g transform="matrix(1.07249,0,0,1.11488,247.787,48.8326)">
            <rect x="356.286" y="63.807" width="148.744" height="28.808" style="fill:white;stroke:rgb(231,173,82);stroke-width:1.83px;"/>
        </g>
        <g transform="matrix(1,0,0,1,283.145,20.5051)">
            <text x="397.716px" y="87.155px" style="font-family:'Courier';font-size:16px;fill:none;">&quot;test&quot;</text>
            <text x="397.716px" y="87.155px" style="font-family:'Courier';font-size:16px;fill:rgb(231,173,82);">&quot;test&quot;</text>
        </g>
        <g transform="matrix(1,0,0,1,292.746,52.8062)">
            <text x="397.716px" y="87.155px" style="font-family:'Courier';font-size:16px;fill:none;">1234</text>
            <text x="397.716px" y="87.155px" style="font-family:'Courier';font-size:16px;fill:rgb(231,173,82);">1234</text>
        </g>
        <g transform="matrix(1,0,0,1,250.215,22.3258)">
            <text x="359.031px" y="85.543px" style="font-family:'Courier';font-size:20px;fill:none;">x</text>
            <text x="359.031px" y="85.543px" style="font-family:'Courier';font-size:20px;fill:white;">x</text>
        </g>
        <g transform="matrix(1,0,0,1,250.215,55.3258)">
            <text x="359.031px" y="85.543px" style="font-family:'Courier';font-size:20px;fill:none;">y</text>
            <text x="359.031px" y="85.543px" style="font-family:'Courier';font-size:20px;fill:white;">y</text>
        </g>
        <g transform="matrix(1.12099,0,0,1,195.252,-77.5028)">
            <path d="M254.446,200.413L254.446,195.855L335.053,195.855L335.053,191.622L340.862,198.134L335.053,204.646L335.053,200.413L254.446,200.413Z" style="fill:rgb(231,173,82);stroke:rgb(231,173,82);stroke-width:1.88px;"/>
        </g>
        <g transform="matrix(1,0,0,1,87.155,-354.001)">
            <rect x="200.221" y="434.948" width="207.816" height="83.365" style="fill:none;stroke:rgb(231,173,82);stroke-width:2px;"/>
        </g>
        <g transform="matrix(1,0,0,1,-154.945,-355.852)">
            <rect x="200.221" y="434.948" width="207.816" height="83.365" style="fill:none;stroke:rgb(231,173,82);stroke-width:2px;"/>
        </g>
        <g transform="matrix(1,0,0,1,87.018,-351.899)">
            <rect x="200.272" y="402.842" width="88.611" height="30.218" style="fill:rgb(231,173,82);stroke:rgb(231,173,82);stroke-width:2px;"/>
        </g>
        <g transform="matrix(1,0,0,1,-155.082,-353.75)">
            <rect x="200.272" y="402.842" width="88.611" height="30.218" style="fill:rgb(231,173,82);stroke:rgb(231,173,82);stroke-width:2px;"/>
        </g>
        <g transform="matrix(1,0,0,1,71.8535,-351.999)">
            <text x="233.017px" y="481.437px" style="font-family:'Courier';font-size:24px;fill:none;">ref:0x2f4b91</text>
            <text x="233.017px" y="481.437px" style="font-family:'Courier';font-size:24px;fill:rgb(231,173,82);">ref:0x2f4b91</text>
        </g>
        <g transform="matrix(1,0,0,1,-155.844,-353.741)">
            <text x="233.017px" y="481.437px" style="font-family:'Courier';font-size:30px;fill:none;">&quot;Hello!&quot;</text>
            <text x="233.017px" y="481.437px" style="font-family:'Courier';font-size:30px;fill:rgb(231,173,82);">&quot;Hello!&quot;</text>
        </g>
        <g transform="matrix(1.22698,0,0,1.22698,37.4587,-439.179)">
            <text x="229.34px" y="420.514px" style="font-family:'Courier';font-size:30px;fill:none;">w</text>
            <text x="229.34px" y="420.514px" style="font-family:'Courier';font-size:30px;fill:white;">w</text>
        </g>
        <g transform="matrix(1.22698,0,0,1.22698,-204.642,-442.814)">
            <text x="229.34px" y="420.514px" style="font-family:'Courier';font-size:30px;fill:none;">y</text>
            <text x="229.34px" y="420.514px" style="font-family:'Courier';font-size:30px;fill:white;">y</text>
        </g>
    </g>
</svg>
