<?xml version="1.0" encoding="UTF-8" standalone="no"?>
<!DOCTYPE svg PUBLIC "-//W3C//DTD SVG 1.1//EN" "http://www.w3.org/Graphics/SVG/1.1/DTD/svg11.dtd">
<svg width="100%" height="100%" viewBox="0 0 380 270" version="1.1" xmlns="http://www.w3.org/2000/svg" xmlns:xlink="http://www.w3.org/1999/xlink" xml:space="preserve" style="fill-rule:evenodd;clip-rule:evenodd;stroke-linecap:round;stroke-linejoin:round;stroke-miterlimit:1.5;">
    <g transform="matrix(1,0,0,1,-353.304,-75.0892)">
        <g transform="matrix(1.23862,0,0,0.633263,148.8,59.077)">
            <rect x="347.481" y="41.526" width="95.976" height="90.362" style="fill:rgb(231,173,82);stroke:rgb(231,173,82);stroke-width:2.03px;"/>
        </g>
        <g transform="matrix(1.23862,0,0,0.633263,148.8,154.077)">
            <rect x="347.481" y="41.526" width="95.976" height="90.362" style="fill:rgb(231,173,82);stroke:rgb(231,173,82);stroke-width:2.03px;"/>
        </g>
        <g transform="matrix(1,0,0,1,254.073,40.801)">
            <text x="332.511px" y="62.704px" style="font-family:'ArialMT', 'Arial', sans-serif;font-size:16px;fill:none;">addr: 0x440892</text>
            <text x="332.511px" y="62.704px" style="font-family:'ArialMT', 'Arial', sans-serif;font-size:16px;fill:white;">addr: 0x440892</text>
        </g>
        <g transform="matrix(1,0,0,1,254.073,135.801)">
            <text x="332.511px" y="62.704px" style="font-family:'ArialMT', 'Arial', sans-serif;font-size:16px;fill:none;">addr: 0x3c980c</text>
            <text x="332.511px" y="62.704px" style="font-family:'ArialMT', 'Arial', sans-serif;font-size:16px;fill:white;">addr: 0x3c980c</text>
        </g>
        <g transform="matrix(0.682041,0,0,1.11488,387.681,39.3418)">
            <rect x="356.286" y="63.807" width="148.744" height="28.808" style="fill:white;stroke:rgb(231,173,82);stroke-width:2.16px;"/>
        </g>
        <g transform="matrix(0.682041,0,0,1.11488,387.681,134.342)">
            <rect x="356.286" y="63.807" width="148.744" height="28.808" style="fill:white;stroke:rgb(231,173,82);stroke-width:2.16px;"/>
        </g>
        <g transform="matrix(1,0,0,1,269.289,43.0144)">
            <text x="397.716px" y="87.155px" style="font-family:'Courier';font-size:16px;fill:none;">100</text>
            <text x="397.716px" y="87.155px" style="font-family:'Courier';font-size:16px;fill:rgb(231,173,82);">100</text>
        </g>
        <g transform="matrix(1,0,0,1,269.289,138.014)">
            <text x="397.716px" y="87.155px" style="font-family:'Courier';font-size:16px;fill:none;">200</text>
            <text x="397.716px" y="87.155px" style="font-family:'Courier';font-size:16px;fill:rgb(231,173,82);">200</text>
        </g>
        <g transform="matrix(1,0,0,1,250.995,44.8351)">
            <text x="359.031px" y="85.543px" style="font-family:'Courier';font-size:20px;fill:none;">a</text>
            <text x="359.031px" y="85.543px" style="font-family:'Courier';font-size:20px;fill:white;">a</text>
        </g>
        <g transform="matrix(1,0,0,1,250.995,139.835)">
            <text x="359.031px" y="85.543px" style="font-family:'Courier';font-size:20px;fill:none;">a</text>
            <text x="359.031px" y="85.543px" style="font-family:'Courier';font-size:20px;fill:white;">a</text>
        </g>
        <g transform="matrix(1.12099,0,0,1,195.252,-77.5028)">
            <path d="M254.446,200.413L254.446,195.855L335.053,195.855L335.053,191.622L340.862,198.134L335.053,204.646L335.053,200.413L254.446,200.413Z" style="fill:rgb(231,173,82);stroke:rgb(231,173,82);stroke-width:1.88px;"/>
        </g>
        <g transform="matrix(1.12099,0,0,1,195.252,17.4972)">
            <path d="M254.446,200.413L254.446,195.855L335.053,195.855L335.053,191.622L340.862,198.134L335.053,204.646L335.053,200.413L254.446,200.413Z" style="fill:rgb(231,173,82);stroke:rgb(231,173,82);stroke-width:1.88px;"/>
        </g>
        <g transform="matrix(1.10862,-0.935569,0.64494,0.764233,70.986,402.616)">
            <path d="M254.446,200.413L254.446,195.855L336.373,195.855L336.373,191.622L340.862,198.134L336.373,204.646L336.373,200.413L254.446,200.413Z" style="fill:rgb(231,173,82);stroke:rgb(231,173,82);stroke-width:1.61px;"/>
        </g>
        <g transform="matrix(0.643292,0,0,0.643292,225.559,-184.408)">
            <rect x="200.221" y="434.948" width="207.816" height="83.365" style="fill:none;stroke:rgb(231,173,82);stroke-width:3.11px;"/>
        </g>
        <g transform="matrix(0.643292,0,0,0.643292,225.559,-89.4084)">
            <rect x="200.221" y="434.948" width="207.816" height="83.365" style="fill:none;stroke:rgb(231,173,82);stroke-width:3.11px;"/>
        </g>
        <g transform="matrix(0.643292,0,0,0.643292,225.559,10.5916)">
            <rect x="200.221" y="434.948" width="207.816" height="83.365" style="fill:none;stroke:rgb(231,173,82);stroke-width:3.11px;"/>
        </g>
        <g transform="matrix(0.643292,0,0,0.643292,225.471,-183.056)">
            <rect x="200.272" y="402.842" width="88.611" height="30.218" style="fill:rgb(231,173,82);stroke:rgb(231,173,82);stroke-width:3.11px;"/>
        </g>
        <g transform="matrix(0.643292,0,0,0.643292,225.471,-88.0563)">
            <rect x="200.272" y="402.842" width="88.611" height="30.218" style="fill:rgb(231,173,82);stroke:rgb(231,173,82);stroke-width:3.11px;"/>
        </g>
        <g transform="matrix(0.643292,0,0,0.643292,225.471,11.9437)">
            <rect x="200.272" y="402.842" width="88.611" height="30.218" style="fill:rgb(231,173,82);stroke:rgb(231,173,82);stroke-width:3.11px;"/>
        </g>
        <g transform="matrix(0.643292,0,0,0.643292,215.715,-183.12)">
            <text x="233.017px" y="481.437px" style="font-family:'Courier';font-size:24px;fill:none;">ref:0x440892</text>
            <text x="233.017px" y="481.437px" style="font-family:'Courier';font-size:24px;fill:rgb(231,173,82);">ref:0x440892</text>
        </g>
        <g transform="matrix(0.643292,0,0,0.643292,215.715,-88.1203)">
            <text x="233.017px" y="481.437px" style="font-family:'Courier';font-size:24px;fill:none;">ref:0x3c980c</text>
            <text x="233.017px" y="481.437px" style="font-family:'Courier';font-size:24px;fill:rgb(231,173,82);">ref:0x3c980c</text>
        </g>
        <g transform="matrix(0.643292,0,0,0.643292,215.715,11.8797)">
            <text x="233.017px" y="481.437px" style="font-family:'Courier';font-size:24px;fill:none;">ref:0x3c980c</text>
            <text x="233.017px" y="481.437px" style="font-family:'Courier';font-size:24px;fill:rgb(231,173,82);">ref:0x3c980c</text>
        </g>
        <g transform="matrix(0.789304,0,0,0.789304,193.59,-239.203)">
            <text x="229.34px" y="420.514px" style="font-family:'Courier';font-size:30px;fill:none;">x</text>
            <text x="229.34px" y="420.514px" style="font-family:'Courier';font-size:30px;fill:white;">x</text>
        </g>
        <g transform="matrix(0.789304,0,0,0.789304,193.59,-144.203)">
            <text x="229.34px" y="420.514px" style="font-family:'Courier';font-size:30px;fill:none;">y</text>
            <text x="229.34px" y="420.514px" style="font-family:'Courier';font-size:30px;fill:white;">y</text>
        </g>
        <g transform="matrix(0.789304,0,0,0.789304,193.59,-44.2029)">
            <text x="229.34px" y="420.514px" style="font-family:'Courier';font-size:30px;fill:none;">z</text>
            <text x="229.34px" y="420.514px" style="font-family:'Courier';font-size:30px;fill:white;">z</text>
        </g>
    </g>
</svg>
