<?xml version="1.0" encoding="UTF-8" standalone="no"?>
<!DOCTYPE svg PUBLIC "-//W3C//DTD SVG 1.1//EN" "http://www.w3.org/Graphics/SVG/1.1/DTD/svg11.dtd">
<svg width="100%" height="100%" viewBox="0 0 1353 778" version="1.1" xmlns="http://www.w3.org/2000/svg" xmlns:xlink="http://www.w3.org/1999/xlink" xml:space="preserve" xmlns:serif="http://www.serif.com/" style="fill-rule:evenodd;clip-rule:evenodd;stroke-linejoin:round;stroke-miterlimit:10;">
    <g transform="matrix(1,0,0,1,-4603.76,-5368)">
        <g id="Page-30" serif:id="Page 30" transform="matrix(2.66667,0,0,2.66667,4320,4860)">
            <rect x="0" y="0" width="720" height="540" style="fill:none;"/>
            <clipPath id="_clip1">
                <rect x="0" y="0" width="720" height="540"/>
            </clipPath>
            <g clip-path="url(#_clip1)">
                <g transform="matrix(1,0,0,1,0,-1.2208e-05)">
                    <rect x="0" y="0" width="720" height="540" style="fill:white;"/>
                </g>
                <g transform="matrix(1,0,0,1,0,132.388)">
                    <rect x="107.91" y="59.611" width="504.19" height="288.39" style="fill:rgb(222,235,247);stroke:rgb(32,56,100);stroke-width:3px;"/>
                </g>
                <g transform="matrix(1,0,0,1,0,187.276)">
                    <rect x="186" y="83.062" width="348" height="186.6" style="fill:rgb(226,240,217);stroke:rgb(56,87,35);stroke-width:3px;"/>
                </g>
                <g transform="matrix(1,0,0,1,0,272.09)">
                    <rect x="220.95" y="91.545" width="278.09" height="84.82" style="fill:rgb(255,242,204);stroke:rgb(127,96,0);stroke-width:3px;"/>
                </g>
                <g>
                    <text x="7.2px" y="44.78px" style="font-family:'Calibri', sans-serif;font-size:36px;fill:rgb(68,114,196);">O</text>
                    <text x="30.736px" y="44.78px" style="font-family:'Calibri', sans-serif;font-size:36px;fill:rgb(68,114,196);">d</text>
                    <text x="49.45px" y="44.78px" style="font-family:'Calibri', sans-serif;font-size:36px;fill:rgb(68,114,196);">v</text>
                    <text x="64.782px" y="44.78px" style="font-family:'Calibri', sans-serif;font-size:36px;fill:rgb(68,114,196);">a<tspan x="81.727px 90.04px " y="44.78px 44.78px ">ja</tspan></text>
                    <text x="106.984px" y="44.78px" style="font-family:'Calibri', sans-serif;font-size:36px;fill:rgb(68,114,196);">n</text>
                    <text x="125.698px" y="44.78px" style="font-family:'Calibri', sans-serif;font-size:36px;fill:rgb(68,114,196);">j</text>
                    <text x="134.011px" y="44.78px" style="font-family:'Calibri', sans-serif;font-size:36px;fill:rgb(68,114,196);">e</text>
                    <text x="159.962px" y="44.78px" style="font-family:'Calibri', sans-serif;font-size:36px;fill:rgb(68,114,196);">d<tspan x="178.676px 196.072px " y="44.78px 44.78px ">ef</tspan></text>
                    <text x="206.858px" y="44.78px" style="font-family:'Calibri', sans-serif;font-size:36px;fill:rgb(68,114,196);">i</text>
                    <text x="214.82px" y="44.78px" style="font-family:'Calibri', sans-serif;font-size:36px;fill:rgb(68,114,196);">n</text>
                    <text x="233.534px" y="44.78px" style="font-family:'Calibri', sans-serif;font-size:36px;fill:rgb(68,114,196);">i</text>
                    <text x="241.496px" y="44.78px" style="font-family:'Calibri', sans-serif;font-size:36px;fill:rgb(68,114,196);">c</text>
                    <text x="256.718px" y="44.78px" style="font-family:'Calibri', sans-serif;font-size:36px;fill:rgb(68,114,196);">i<tspan x="264.68px " y="44.78px ">j</tspan></text>
                    <text x="272.993px" y="44.78px" style="font-family:'Calibri', sans-serif;font-size:36px;fill:rgb(68,114,196);">e</text>
                    <text x="298.944px" y="44.78px" style="font-family:'Calibri', sans-serif;font-size:36px;fill:rgb(68,114,196);">r</text>
                    <text x="311.395px" y="44.78px" style="font-family:'Calibri', sans-serif;font-size:36px;fill:rgb(68,114,196);">u<tspan x="330.109px " y="44.78px ">t</tspan></text>
                    <text x="341.968px" y="44.78px" style="font-family:'Calibri', sans-serif;font-size:36px;fill:rgb(68,114,196);">i</text>
                    <text x="349.929px" y="44.78px" style="font-family:'Calibri', sans-serif;font-size:36px;fill:rgb(68,114,196);">r</text>
                    <text x="361.542px" y="44.78px" style="font-family:'Calibri', sans-serif;font-size:36px;fill:rgb(68,114,196);">a</text>
                    <text x="378.486px" y="44.78px" style="font-family:'Calibri', sans-serif;font-size:36px;fill:rgb(68,114,196);">n</text>
                    <text x="397.2px" y="44.78px" style="font-family:'Calibri', sans-serif;font-size:36px;fill:rgb(68,114,196);">j<tspan x="405.513px " y="44.78px ">a</tspan></text>
                    <text x="430.846px" y="44.78px" style="font-family:'Calibri', sans-serif;font-size:36px;fill:rgb(68,114,196);">u</text>
                    <text x="457.699px" y="44.78px" style="font-family:'Calibri', sans-serif;font-size:36px;fill:rgb(68,114,196);">p<tspan x="476.413px " y="44.78px ">o</tspan></text>
                    <text x="495.197px" y="44.78px" style="font-family:'Calibri', sans-serif;font-size:36px;fill:rgb(68,114,196);">s<tspan x="509.177px " y="44.78px ">e</tspan></text>
                    <text x="526.989px" y="44.78px" style="font-family:'Calibri', sans-serif;font-size:36px;fill:rgb(68,114,196);">b</text>
                    <text x="545.704px" y="44.78px" style="font-family:'Calibri', sans-serif;font-size:36px;fill:rgb(68,114,196);">a</text>
                    <text x="562.648px" y="44.78px" style="font-family:'Calibri', sans-serif;font-size:36px;fill:rgb(68,114,196);">n</text>
                    <text x="589.5px" y="44.78px" style="font-family:'Calibri', sans-serif;font-size:36px;fill:rgb(68,114,196);">m</text>
                    <text x="617.958px" y="44.78px" style="font-family:'Calibri', sans-serif;font-size:36px;fill:rgb(68,114,196);">o<tspan x="636.743px 655.457px " y="44.78px 44.78px ">du</tspan></text>
                    <text x="674.171px" y="44.78px" style="font-family:'Calibri', sans-serif;font-size:36px;fill:rgb(68,114,196);">l</text>
                    <text x="17.496px" y="110.71px" style="font-family:'ArialMT', 'Arial', sans-serif;font-size:26.04px;">•</text>
                    <text x="35.471px" y="110.71px" style="font-family:'Calibri', sans-serif;font-size:26.04px;">U</text>
                    <text x="57.928px" y="110.71px" style="font-family:'Calibri', sans-serif;font-size:26.04px;">p</text>
                    <text x="71.609px" y="110.71px" style="font-family:'Calibri', sans-serif;font-size:26.04px;">r</text>
                    <text x="80.254px" y="110.71px" style="font-family:'Calibri', sans-serif;font-size:26.04px;">ak<tspan x="104.323px 114.507px " y="110.71px 110.71px ">si</tspan></text>
                    <text x="126.335px" y="110.71px" style="font-family:'Calibri', sans-serif;font-size:26.04px;">se</text>
                    <text x="155.277px" y="110.71px" style="font-family:'Calibri', sans-serif;font-size:26.04px;">obično</text>
                    <text x="232.942px" y="110.71px" style="font-family:'Calibri', sans-serif;font-size:26.04px;">p</text>
                    <text x="246.623px" y="110.71px" style="font-family:'Calibri', sans-serif;font-size:26.04px;">r</text>
                    <text x="255.267px" y="110.71px" style="font-family:'Calibri', sans-serif;font-size:26.04px;">a<tspan x="267.308px 279.07px " y="110.71px 110.71px ">vi</tspan></text>
                    <text x="290.744px" y="110.71px" style="font-family:'Calibri', sans-serif;font-size:26.04px;">poseban</text>
                    <text x="386.782px" y="110.71px" style="font-family:'Calibri', sans-serif;font-size:26.04px;">mo</text>
                    <text x="421.315px" y="110.71px" style="font-family:'Calibri', sans-serif;font-size:26.04px;">d</text>
                    <text x="434.897px" y="110.71px" style="font-family:'Calibri', sans-serif;font-size:26.04px;">ul</text>
                    <text x="460.456px" y="110.71px" style="font-family:'Calibri', sans-serif;font-size:26.04px;">čij</text>
                    <text x="483.674px" y="110.71px" style="font-family:'Calibri', sans-serif;font-size:26.04px;">i</text>
                    <text x="495.448px" y="110.71px" style="font-family:'Calibri', sans-serif;font-size:26.04px;">z<tspan x="505.302px 517.776px 531.457px 543.689px 552.093px 564.566px 576.404px 582.409px " y="110.71px 110.71px 110.71px 110.71px 110.71px 110.71px 110.71px 110.71px ">adatak j</tspan>e</text>
                    <text x="607.447px" y="110.71px" style="font-family:'Calibri', sans-serif;font-size:26.04px;">rut</text>
                    <text x="638.929px" y="110.71px" style="font-family:'Calibri', sans-serif;font-size:26.04px;">i<tspan x="645.005px " y="110.71px ">r</tspan></text>
                    <text x="653.649px" y="110.71px" style="font-family:'Calibri', sans-serif;font-size:26.04px;">anje</text>
                    <text x="35.496px" y="135.67px" style="font-family:'Calibri', sans-serif;font-size:26.04px;">u</text>
                    <text x="54.972px" y="135.67px" style="font-family:'Calibri', sans-serif;font-size:26.04px;">aplik<tspan x="104.47px 116.944px " y="135.67px 135.67px ">ac</tspan>iji –</text>
                    <text x="171.099px" y="135.67px" style="font-family:'Calibri', sans-serif;font-size:26.04px;">t<tspan x="179.503px 191.977px " y="135.67px 135.67px ">aj</tspan> modul</text>
                    <text x="277.869px" y="135.67px" style="font-family:'Calibri', sans-serif;font-size:26.04px;">naz<tspan x="314.081px 325.461px 337.934px " y="135.67px 135.67px 135.67px ">vać</tspan>emo</text>
                    <text x="402.028px" y="135.67px" style="font-family:'Calibri-Italic', 'Calibri', sans-serif;font-style:italic;font-size:26.04px;">A</text>
                    <text x="417.095px" y="135.67px" style="font-family:'Calibri-Italic', 'Calibri', sans-serif;font-style:italic;font-size:26.04px;">p</text>
                    <text x="430.583px" y="135.67px" style="font-family:'Calibri-Italic', 'Calibri', sans-serif;font-style:italic;font-size:26.04px;">p</text>
                    <text x="443.972px" y="135.67px" style="font-family:'Calibri-Italic', 'Calibri', sans-serif;font-style:italic;font-size:26.04px;">R</text>
                    <path d="M495.872,135.352C495.855,135.42 495.826,135.477 495.783,135.524C495.741,135.57 495.677,135.611 495.593,135.645C495.508,135.678 495.396,135.704 495.256,135.721C495.116,135.738 494.944,135.746 494.741,135.746C494.537,135.746 494.368,135.738 494.232,135.721C494.097,135.704 493.993,135.678 493.921,135.645C493.849,135.611 493.8,135.57 493.774,135.524C493.749,135.477 493.745,135.42 493.762,135.352L495.771,125.32L489.858,125.32L488.574,131.703C488.54,131.881 488.511,132.08 488.485,132.301C488.46,132.521 488.447,132.703 488.447,132.847C488.447,133.28 488.538,133.595 488.72,133.795C488.903,133.994 489.197,134.093 489.604,134.093C489.833,134.093 490.032,134.074 490.202,134.036C490.371,133.998 490.517,133.958 490.64,133.915C490.763,133.873 490.871,133.833 490.964,133.795C491.058,133.756 491.138,133.737 491.206,133.737C491.274,133.737 491.327,133.761 491.365,133.807C491.403,133.854 491.422,133.941 491.422,134.068C491.422,134.178 491.412,134.299 491.39,134.43C491.369,134.562 491.342,134.691 491.308,134.818C491.274,134.945 491.232,135.06 491.181,135.161C491.13,135.263 491.075,135.344 491.015,135.403C490.948,135.462 490.846,135.522 490.71,135.581C490.575,135.64 490.418,135.693 490.24,135.74C490.062,135.787 489.873,135.823 489.674,135.848C489.475,135.873 489.278,135.886 489.083,135.886C488.608,135.886 488.197,135.835 487.849,135.734C487.502,135.632 487.209,135.473 486.972,135.257C486.735,135.041 486.559,134.769 486.444,134.443C486.33,134.117 486.273,133.725 486.273,133.267C486.273,133.165 486.277,133.053 486.285,132.93C486.294,132.807 486.309,132.678 486.33,132.542C486.351,132.407 486.372,132.271 486.394,132.135C486.415,132 486.438,131.873 486.463,131.754L487.748,125.32L486.158,125.32C486.065,125.32 485.993,125.293 485.942,125.237C485.891,125.182 485.866,125.074 485.866,124.913C485.866,124.795 485.879,124.657 485.904,124.5C485.929,124.343 485.968,124.197 486.018,124.061C486.069,123.926 486.135,123.811 486.215,123.718C486.296,123.625 486.391,123.578 486.502,123.578L488.104,123.578L488.65,120.857C488.659,120.798 488.686,120.743 488.733,120.692C488.78,120.641 488.845,120.597 488.93,120.558C489.015,120.52 489.127,120.493 489.267,120.476C489.407,120.459 489.579,120.45 489.782,120.45C489.985,120.45 490.155,120.459 490.291,120.476C490.426,120.493 490.53,120.52 490.602,120.558C490.674,120.597 490.721,120.641 490.742,120.692C490.763,120.743 490.765,120.798 490.748,120.857L490.202,123.578L497.563,123.578C497.818,123.578 497.981,123.635 498.053,123.75C498.125,123.864 498.136,124.032 498.085,124.252L495.872,135.352ZM499.153,120.056C499.11,120.294 499.053,120.493 498.981,120.654C498.909,120.815 498.814,120.944 498.695,121.042C498.576,121.139 498.43,121.209 498.256,121.251C498.083,121.294 497.869,121.315 497.614,121.315C497.36,121.315 497.155,121.294 496.998,121.251C496.841,121.209 496.726,121.139 496.654,121.042C496.582,120.944 496.542,120.815 496.534,120.654C496.525,120.493 496.542,120.294 496.584,120.056C496.627,119.819 496.684,119.622 496.756,119.465C496.828,119.308 496.926,119.177 497.049,119.071C497.171,118.965 497.318,118.893 497.487,118.855C497.657,118.816 497.869,118.797 498.123,118.797C498.377,118.797 498.583,118.816 498.74,118.855C498.896,118.893 499.013,118.965 499.089,119.071C499.166,119.177 499.208,119.308 499.216,119.465C499.225,119.622 499.204,119.819 499.153,120.056Z"/>
                    <text x="457.677px" y="135.67px" style="font-family:'Calibri-Italic', 'Calibri', sans-serif;font-style:italic;font-size:26.04px;">ou</text>
                    <text x="498.937px" y="135.67px" style="font-family:'Calibri-Italic', 'Calibri', sans-serif;font-style:italic;font-size:26.04px;">n</text>
                    <text x="512.425px" y="135.67px" style="font-family:'Calibri-Italic', 'Calibri', sans-serif;font-style:italic;font-size:26.04px;">gMo</text>
                    <text x="561.441px" y="135.67px" style="font-family:'Calibri-Italic', 'Calibri', sans-serif;font-style:italic;font-size:26.04px;">d</text>
                    <text x="574.73px" y="135.67px" style="font-family:'Calibri-Italic', 'Calibri', sans-serif;font-style:italic;font-size:26.04px;">ule</text>
                    <text x="53.496px" y="162.79px" style="font-family:'ArialMT', 'Arial', sans-serif;font-size:21.96px;">•</text>
                    <text x="71.487px" y="162.79px" style="font-family:'Calibri', sans-serif;font-size:21.96px;">Ov<tspan x="95.742px 107.322px " y="162.79px 162.79px ">o </tspan>nije neoph</text>
                    <text x="207.228px" y="162.79px" style="font-family:'Calibri', sans-serif;font-size:21.96px;">o</text>
                    <text x="218.909px" y="162.79px" style="font-family:'Calibri', sans-serif;font-size:21.96px;">dn</text>
                    <text x="241.984px" y="162.79px" style="font-family:'Calibri', sans-serif;font-size:21.96px;">o</text>
                    <text x="253.268px" y="162.79px" style="font-family:'Calibri', sans-serif;font-size:21.96px;">,</text>
                    <text x="263.559px" y="162.79px" style="font-family:'Calibri', sans-serif;font-size:21.96px;">ali je dob</text>
                    <text x="345.022px" y="162.79px" style="font-family:'Calibri', sans-serif;font-size:21.96px;">r</text>
                    <text x="352.324px" y="162.79px" style="font-family:'Calibri', sans-serif;font-size:21.96px;">o u</text>
                    <text x="385.319px" y="162.79px" style="font-family:'Calibri', sans-serif;font-size:21.96px;">sluč<tspan x="419.589px 430.108px " y="162.79px 162.79px ">aj</tspan>u</text>
                    <text x="451.813px" y="162.79px" style="font-family:'Calibri', sans-serif;font-size:21.96px;">v<tspan x="461.517px 472.443px " y="162.79px 162.79px ">eć</tspan></text>
                    <text x="481.729px" y="162.79px" style="font-family:'Calibri', sans-serif;font-size:21.96px;">i</text>
                    <text x="486.668px" y="162.79px" style="font-family:'Calibri', sans-serif;font-size:21.96px;">h p</text>
                    <text x="514.758px" y="162.79px" style="font-family:'Calibri', sans-serif;font-size:21.96px;">r</text>
                    <text x="521.96px" y="162.79px" style="font-family:'Calibri', sans-serif;font-size:21.96px;">ojek<tspan x="559.328px 569.644px " y="162.79px 162.79px ">at</tspan>a</text>
                    <text x="283.42px" y="225.65px" style="font-family:'Calibri', sans-serif;font-size:32.04px;fill:rgb(47,85,151);">Ap</text>
                    <text x="318.792px" y="225.65px" style="font-family:'Calibri', sans-serif;font-size:32.04px;fill:rgb(47,85,151);">p</text>
                    <text x="335.476px" y="225.65px" style="font-family:'Calibri', sans-serif;font-size:32.04px;fill:rgb(47,85,151);">Module</text>
                    <text x="117.67px" y="252.77px" style="font-family:'Calibri', sans-serif;font-size:20.04px;fill:rgb(32,56,100);">(mod</text>
                    <text x="160.852px" y="252.77px" style="font-family:'Calibri', sans-serif;font-size:20.04px;fill:rgb(32,56,100);">u</text>
                    <text x="171.481px" y="252.77px" style="font-family:'Calibri', sans-serif;font-size:20.04px;fill:rgb(32,56,100);">l</text>
                    <text x="180.41px" y="252.77px" style="font-family:'Calibri', sans-serif;font-size:20.04px;fill:rgb(32,56,100);">k<tspan x="188.845px 199.413px " y="252.77px 252.77px ">oj</tspan>i</text>
                    <text x="213.187px" y="252.77px" style="font-family:'Calibri', sans-serif;font-size:20.04px;fill:rgb(32,56,100);">sadrži</text>
                    <text x="265.286px" y="252.77px" style="font-family:'Calibri', sans-serif;font-size:20.04px;fill:rgb(32,56,100);">celok<tspan x="307.753px " y="252.77px ">u</tspan></text>
                    <text x="318.282px" y="252.77px" style="font-family:'Calibri', sans-serif;font-size:20.04px;fill:rgb(32,56,100);">p</text>
                    <text x="328.911px" y="252.77px" style="font-family:'Calibri', sans-serif;font-size:20.04px;fill:rgb(32,56,100);">nu</text>
                    <text x="354.199px" y="252.77px" style="font-family:'Calibri', sans-serif;font-size:20.04px;fill:rgb(32,56,100);">fu</text>
                    <text x="370.844px" y="252.77px" style="font-family:'Calibri', sans-serif;font-size:20.04px;fill:rgb(32,56,100);">n</text>
                    <text x="381.472px" y="252.77px" style="font-family:'Calibri', sans-serif;font-size:20.04px;fill:rgb(32,56,100);">k<tspan x="390.113px 398.587px " y="252.77px 252.77px ">ci</tspan>onalnos<tspan x="467.19px " y="252.77px ">t</tspan></text>
                    <text x="478.334px" y="252.77px" style="font-family:'Calibri', sans-serif;font-size:20.04px;fill:rgb(32,56,100);">naše aplik<tspan x="558.895px 568.494px " y="252.77px 252.77px ">ac</tspan>ije)</text>
                    <text x="249.22px" y="300.14px" style="font-family:'Calibri', sans-serif;font-size:27.96px;fill:rgb(56,87,35);">AppR<tspan x="309.386px 324.13px " y="300.14px 300.14px ">ou</tspan>t</text>
                    <text x="348.186px" y="300.14px" style="font-family:'Calibri', sans-serif;font-size:27.96px;fill:rgb(56,87,35);">i</text>
                    <text x="354.452px" y="300.14px" style="font-family:'Calibri', sans-serif;font-size:27.96px;fill:rgb(56,87,35);">ngModule</text>
                    <text x="226.39px" y="326.33px" style="font-family:'Calibri', sans-serif;font-size:20.064px;fill:rgb(56,87,35);">(</text>
                    <text x="232.474px" y="326.33px" style="font-family:'Calibri', sans-serif;font-size:20.064px;fill:rgb(56,87,35);">m</text>
                    <text x="248.402px" y="326.33px" style="font-family:'Calibri', sans-serif;font-size:20.064px;fill:rgb(56,87,35);">odul</text>
                    <text x="289.251px" y="326.33px" style="font-family:'Calibri', sans-serif;font-size:20.064px;fill:rgb(56,87,35);">k</text>
                    <text x="297.596px" y="326.33px" style="font-family:'Calibri', sans-serif;font-size:20.064px;fill:rgb(56,87,35);">oji</text>
                    <text x="321.961px" y="326.33px" style="font-family:'Calibri', sans-serif;font-size:20.064px;fill:rgb(56,87,35);">sad</text>
                    <text x="349.96px" y="326.33px" style="font-family:'Calibri', sans-serif;font-size:20.064px;fill:rgb(56,87,35);">r</text>
                    <text x="356.855px" y="326.33px" style="font-family:'Calibri', sans-serif;font-size:20.064px;fill:rgb(56,87,35);">ži funk<tspan x="409.823px 418.307px " y="326.33px 326.33px ">ci</tspan>ona</text>
                    <text x="453.645px" y="326.33px" style="font-family:'Calibri', sans-serif;font-size:20.064px;fill:rgb(56,87,35);">l</text>
                    <text x="458.149px" y="326.33px" style="font-family:'Calibri', sans-serif;font-size:20.064px;fill:rgb(56,87,35);">nos<tspan x="486.893px " y="326.33px ">t</tspan></text>
                    <path d="M232.904,341.024C233.1,341.024 233.234,341.068 233.306,341.156C233.377,341.244 233.413,341.373 233.413,341.543L233.413,350.085C233.413,350.138 233.4,350.182 233.374,350.217C233.348,350.253 233.304,350.284 233.242,350.31C233.18,350.337 233.097,350.356 232.992,350.369C232.888,350.382 232.761,350.389 232.611,350.389C232.448,350.389 232.314,350.382 232.21,350.369C232.105,350.356 232.022,350.337 231.96,350.31C231.898,350.284 231.854,350.253 231.828,350.217C231.802,350.182 231.789,350.138 231.789,350.085L231.789,342.365L227.239,342.365L227.239,347.277C227.239,347.884 227.328,348.342 227.508,348.652C227.687,348.962 228.008,349.117 228.472,349.117C228.622,349.117 228.755,349.102 228.873,349.073C228.99,349.043 229.095,349.012 229.186,348.98C229.277,348.947 229.356,348.916 229.421,348.887C229.486,348.857 229.545,348.843 229.597,348.843C229.63,348.843 229.661,348.851 229.69,348.867C229.719,348.883 229.742,348.914 229.758,348.96C229.775,349.006 229.789,349.068 229.802,349.146C229.815,349.224 229.822,349.322 229.822,349.44C229.822,349.629 229.809,349.777 229.783,349.885C229.757,349.992 229.718,350.074 229.665,350.129C229.613,350.185 229.535,350.235 229.431,350.281C229.326,350.327 229.207,350.364 229.073,350.394C228.94,350.423 228.798,350.447 228.648,350.467C228.498,350.487 228.348,350.496 228.198,350.496C227.741,350.496 227.35,350.436 227.023,350.315C226.697,350.195 226.43,350.012 226.221,349.767C226.012,349.523 225.861,349.213 225.766,348.838C225.671,348.463 225.624,348.021 225.624,347.512L225.624,342.365L224.391,342.365C224.293,342.365 224.215,342.313 224.156,342.208C224.098,342.104 224.068,341.934 224.068,341.699C224.068,341.576 224.076,341.471 224.093,341.386C224.109,341.302 224.13,341.231 224.156,341.176C224.182,341.121 224.217,341.081 224.259,341.059C224.302,341.036 224.349,341.024 224.401,341.024L225.624,341.024L225.624,338.93C225.624,338.885 225.636,338.842 225.658,338.803C225.681,338.764 225.724,338.73 225.786,338.7C225.848,338.671 225.931,338.65 226.035,338.637C226.14,338.624 226.27,338.617 226.427,338.617C226.59,338.617 226.723,338.624 226.828,338.637C226.932,338.65 227.014,338.671 227.072,338.7C227.131,338.73 227.173,338.764 227.2,338.803C227.226,338.842 227.239,338.885 227.239,338.93L227.239,341.024L232.904,341.024ZM233.599,338.304C233.599,338.682 233.527,338.94 233.384,339.077C233.24,339.214 232.976,339.283 232.591,339.283C232.213,339.283 231.954,339.216 231.813,339.082C231.673,338.948 231.603,338.695 231.603,338.324C231.603,337.945 231.675,337.688 231.818,337.551C231.962,337.414 232.226,337.345 232.611,337.345C232.989,337.345 233.248,337.412 233.389,337.546C233.529,337.679 233.599,337.932 233.599,338.304Z" style="fill:rgb(56,87,35);"/>
                    <text x="206.23px" y="350.33px" style="font-family:'Calibri', sans-serif;font-size:20.04px;fill:rgb(56,87,35);">ru<tspan x="234.91px 241.486px 251.085px " y="350.33px 350.33px 350.33px ">ran</tspan>ja speciﬁč</text>
                    <text x="341.076px" y="350.33px" style="font-family:'Calibri', sans-serif;font-size:20.04px;fill:rgb(56,87,35);">n</text>
                    <text x="351.604px" y="350.33px" style="font-family:'Calibri', sans-serif;font-size:20.04px;fill:rgb(56,87,35);">u</text>
                    <text x="366.709px" y="350.33px" style="font-family:'Calibri', sans-serif;font-size:20.04px;fill:rgb(56,87,35);">z</text>
                    <text x="374.193px" y="350.33px" style="font-family:'Calibri', sans-serif;font-size:20.04px;fill:rgb(56,87,35);">a</text>
                    <text x="388.368px" y="350.33px" style="font-family:'Calibri', sans-serif;font-size:20.04px;fill:rgb(56,87,35);">n</text>
                    <text x="398.897px" y="350.33px" style="font-family:'Calibri', sans-serif;font-size:20.04px;fill:rgb(56,87,35);">ašu</text>
                    <text x="431.287px" y="350.33px" style="font-family:'Calibri', sans-serif;font-size:20.04px;fill:rgb(56,87,35);">aplik<tspan x="469.38px 478.98px " y="350.33px 350.33px ">ac</tspan>ij</text>
                    <text x="496.847px" y="350.33px" style="font-family:'Calibri', sans-serif;font-size:20.04px;fill:rgb(56,87,35);">u</text>
                    <text x="507.476px" y="350.33px" style="font-family:'Calibri', sans-serif;font-size:20.04px;fill:rgb(56,87,35);">)</text>
                    <path d="M371.242,378.604C371.477,378.604 371.637,378.657 371.723,378.763C371.809,378.868 371.852,379.023 371.852,379.226L371.852,389.467C371.852,389.529 371.837,389.582 371.805,389.625C371.774,389.668 371.721,389.705 371.647,389.737C371.573,389.768 371.473,389.791 371.348,389.807C371.223,389.823 371.07,389.83 370.89,389.83C370.695,389.83 370.534,389.823 370.409,389.807C370.284,389.791 370.185,389.768 370.11,389.737C370.036,389.705 369.983,389.668 369.952,389.625C369.921,389.582 369.905,389.529 369.905,389.467L369.905,380.211L364.45,380.211L364.45,386.1C364.45,386.827 364.558,387.377 364.773,387.748C364.988,388.12 365.373,388.305 365.928,388.305C366.108,388.305 366.268,388.288 366.409,388.253C366.55,388.217 366.675,388.18 366.785,388.141C366.894,388.102 366.988,388.065 367.066,388.03C367.144,387.995 367.215,387.977 367.277,387.977C367.316,387.977 367.354,387.987 367.389,388.006C367.424,388.026 367.451,388.063 367.471,388.118C367.49,388.172 367.508,388.247 367.524,388.341C367.539,388.434 367.547,388.552 367.547,388.693C367.547,388.919 367.531,389.097 367.5,389.226C367.469,389.355 367.422,389.453 367.359,389.52C367.297,389.586 367.203,389.647 367.078,389.701C366.953,389.756 366.81,389.801 366.65,389.836C366.489,389.871 366.319,389.901 366.139,389.924C365.96,389.948 365.78,389.959 365.6,389.959C365.052,389.959 364.583,389.887 364.192,389.742C363.801,389.598 363.481,389.379 363.23,389.085C362.98,388.792 362.798,388.421 362.685,387.971C362.571,387.521 362.515,386.992 362.515,386.382L362.515,380.211L361.037,380.211C360.919,380.211 360.826,380.149 360.755,380.024C360.685,379.899 360.65,379.695 360.65,379.414C360.65,379.265 360.659,379.14 360.679,379.038C360.698,378.937 360.724,378.853 360.755,378.786C360.786,378.72 360.828,378.673 360.878,378.645C360.929,378.618 360.986,378.604 361.048,378.604L362.515,378.604L362.515,376.094C362.515,376.039 362.528,375.988 362.556,375.942C362.583,375.895 362.634,375.854 362.708,375.818C362.783,375.783 362.882,375.758 363.007,375.742C363.133,375.726 363.289,375.719 363.477,375.719C363.672,375.719 363.832,375.726 363.958,375.742C364.083,375.758 364.18,375.783 364.251,375.818C364.321,375.854 364.372,375.895 364.403,375.942C364.435,375.988 364.45,376.039 364.45,376.094L364.45,378.604L371.242,378.604ZM372.075,375.343C372.075,375.797 371.989,376.106 371.817,376.27C371.645,376.434 371.328,376.516 370.867,376.516C370.413,376.516 370.102,376.436 369.934,376.276C369.766,376.116 369.682,375.812 369.682,375.367C369.682,374.913 369.768,374.604 369.94,374.44C370.112,374.276 370.429,374.194 370.89,374.194C371.344,374.194 371.655,374.274 371.823,374.434C371.991,374.594 372.075,374.897 372.075,375.343Z" style="fill:rgb(127,96,0);"/>
                    <text x="322.42px" y="389.76px" style="font-family:'Calibri', sans-serif;font-size:24.024px;fill:rgb(127,96,0);">R<tspan x="334.972px 347.641px 373.647px " y="389.76px 389.76px 389.76px ">oun</tspan>g</text>
                    <text x="239.14px" y="414.84px" style="font-family:'Calibri', sans-serif;font-size:20.04px;fill:rgb(127,96,0);">(</text>
                    <text x="245.217px" y="414.84px" style="font-family:'Calibri', sans-serif;font-size:20.04px;fill:rgb(127,96,0);">M</text>
                    <text x="262.45px" y="414.84px" style="font-family:'Calibri', sans-serif;font-size:20.04px;fill:rgb(127,96,0);">od</text>
                    <text x="283.547px" y="414.84px" style="font-family:'Calibri', sans-serif;font-size:20.04px;fill:rgb(127,96,0);">u</text>
                    <text x="294.076px" y="414.84px" style="font-family:'Calibri', sans-serif;font-size:20.04px;fill:rgb(127,96,0);">l</text>
                    <text x="302.956px" y="414.84px" style="font-family:'Calibri', sans-serif;font-size:20.04px;fill:rgb(127,96,0);">k<tspan x="311.39px 321.958px " y="414.84px 414.84px ">oj</tspan>i sadrži</text>
                    <text x="387.781px" y="414.84px" style="font-family:'Calibri', sans-serif;font-size:20.04px;fill:rgb(127,96,0);">An</text>
                    <text x="409.905px" y="414.84px" style="font-family:'Calibri', sans-serif;font-size:20.04px;fill:rgb(127,96,0);">g</text>
                    <text x="419.438px" y="414.84px" style="font-family:'Calibri', sans-serif;font-size:20.04px;fill:rgb(127,96,0);">ular</text>
                    <text x="450.829px" y="414.84px" style="font-family:'Calibri', sans-serif;font-size:20.04px;fill:rgb(127,96,0);">o</text>
                    <text x="461.159px" y="414.84px" style="font-family:'Calibri', sans-serif;font-size:20.04px;fill:rgb(127,96,0);">vu</text>
                    <text x="256.42px" y="438.84px" style="font-family:'Calibri', sans-serif;font-size:20.04px;fill:rgb(127,96,0);">imple</text>
                    <text x="302.126px" y="438.84px" style="font-family:'Calibri', sans-serif;font-size:20.04px;fill:rgb(127,96,0);">m</text>
                    <path d="M414.149,429.534C414.345,429.534 414.478,429.578 414.55,429.666C414.622,429.754 414.658,429.883 414.658,430.053L414.658,438.595C414.658,438.648 414.645,438.692 414.618,438.727C414.592,438.763 414.548,438.794 414.486,438.82C414.424,438.847 414.341,438.866 414.237,438.879C414.132,438.892 414.005,438.899 413.855,438.899C413.692,438.899 413.558,438.892 413.454,438.879C413.35,438.866 413.267,438.847 413.205,438.82C413.143,438.794 413.099,438.763 413.072,438.727C413.046,438.692 413.033,438.648 413.033,438.595L413.033,430.875L408.483,430.875L408.483,435.787C408.483,436.394 408.573,436.852 408.752,437.162C408.932,437.472 409.253,437.627 409.716,437.627C409.866,437.627 410,437.612 410.117,437.583C410.235,437.553 410.339,437.522 410.43,437.49C410.522,437.457 410.6,437.426 410.665,437.397C410.731,437.367 410.789,437.353 410.841,437.353C410.874,437.353 410.905,437.361 410.934,437.377C410.964,437.393 410.987,437.424 411.003,437.47C411.019,437.516 411.034,437.578 411.047,437.656C411.06,437.734 411.066,437.832 411.066,437.95C411.066,438.139 411.053,438.287 411.027,438.395C411.001,438.502 410.962,438.584 410.91,438.639C410.858,438.695 410.779,438.745 410.675,438.791C410.571,438.837 410.452,438.874 410.318,438.904C410.184,438.933 410.042,438.957 409.892,438.977C409.742,438.997 409.592,439.006 409.442,439.006C408.985,439.006 408.594,438.946 408.268,438.825C407.942,438.705 407.674,438.522 407.466,438.277C407.257,438.033 407.105,437.723 407.011,437.348C406.916,436.973 406.869,436.531 406.869,436.022L406.869,430.875L405.636,430.875C405.538,430.875 405.46,430.823 405.401,430.718C405.342,430.614 405.313,430.444 405.313,430.209C405.313,430.086 405.321,429.981 405.337,429.896C405.354,429.812 405.375,429.741 405.401,429.686C405.427,429.631 405.461,429.591 405.504,429.569C405.546,429.546 405.593,429.534 405.645,429.534L406.869,429.534L406.869,427.44C406.869,427.395 406.88,427.352 406.903,427.313C406.926,427.274 406.968,427.24 407.03,427.21C407.092,427.181 407.175,427.16 407.28,427.147C407.384,427.134 407.514,427.127 407.671,427.127C407.834,427.127 407.968,427.134 408.072,427.147C408.177,427.16 408.258,427.181 408.317,427.21C408.376,427.24 408.418,427.274 408.444,427.313C408.47,427.352 408.483,427.395 408.483,427.44L408.483,429.534L414.149,429.534ZM414.844,426.814C414.844,427.192 414.772,427.45 414.628,427.587C414.485,427.724 414.221,427.793 413.836,427.793C413.457,427.793 413.198,427.726 413.058,427.592C412.918,427.458 412.847,427.205 412.847,426.834C412.847,426.455 412.919,426.198 413.063,426.061C413.206,425.924 413.47,425.855 413.855,425.855C414.234,425.855 414.493,425.922 414.633,426.056C414.773,426.189 414.844,426.442 414.844,426.814Z" style="fill:rgb(127,96,0);"/>
                    <text x="317.985px" y="438.84px" style="font-family:'Calibri', sans-serif;font-size:20.04px;fill:rgb(127,96,0);">en<tspan x="338.299px 344.767px 354.366px " y="438.84px 438.84px 438.84px ">tac</tspan>iju <tspan x="387.474px 394.461px 416.155px 422.73px 432.33px " y="438.84px 438.84px 438.84px 438.84px 438.84px ">ruran</tspan>ja)</text>
                </g>
            </g>
        </g>
    </g>
</svg>
