<?xml version="1.0" encoding="UTF-8" standalone="no"?>
<!DOCTYPE svg PUBLIC "-//W3C//DTD SVG 1.1//EN" "http://www.w3.org/Graphics/SVG/1.1/DTD/svg11.dtd">
<svg width="100%" height="100%" viewBox="0 0 909 271" version="1.1" xmlns="http://www.w3.org/2000/svg" xmlns:xlink="http://www.w3.org/1999/xlink" xml:space="preserve" xmlns:serif="http://www.serif.com/" style="fill-rule:evenodd;clip-rule:evenodd;stroke-miterlimit:10;">
    <g transform="matrix(1,0,0,1,-6745.95,-751.23)">
        <g id="Page-5" serif:id="Page 5" transform="matrix(2,0,0,2,6480,0)">
            <rect x="0" y="0" width="720" height="540" style="fill:none;"/>
            <clipPath id="_clip1">
                <rect x="0" y="0" width="720" height="540"/>
            </clipPath>
            <g clip-path="url(#_clip1)">
                <g transform="matrix(1,0,0,1,0,-1.2208e-05)">
                    <rect x="0" y="0" width="720" height="540" style="fill:white;"/>
                </g>
                <g transform="matrix(1,0,0,1,0,361.588)">
                    <path d="M138,19.192L261.04,19.192L261.04,120.588C199.52,120.588 199.52,159.22 138,137.27L138,19.192Z" style="fill:rgb(91,155,213);stroke:rgb(65,113,156);stroke-width:1px;"/>
                </g>
                <g transform="matrix(1,0,0,1,0,361.622)">
                    <path d="M458.96,19.018L582,19.018L582,120.64C520.48,120.64 520.48,159.36 458.96,137.36L458.96,19.018Z" style="fill:rgb(91,155,213);stroke:rgb(65,113,156);stroke-width:1px;"/>
                </g>
                <g transform="matrix(1,0,0,1,0,383.783)">
                    <rect x="305.88" y="42" width="108.24" height="72.217" style="fill:rgb(237,125,49);stroke:rgb(237,125,49);stroke-width:1px;"/>
                </g>
                <g>
                    <text x="7.2px" y="46.94px" style="font-family:'Calibri', sans-serif;font-size:44.04px;fill:rgb(112,173,71);">P</text>
                    <text x="29.051px" y="46.94px" style="font-family:'Calibri', sans-serif;font-size:44.04px;fill:rgb(112,173,71);">r</text>
                    <text x="44.205px" y="46.94px" style="font-family:'Calibri', sans-serif;font-size:44.04px;fill:rgb(112,173,71);">i</text>
                    <text x="53.912px" y="46.94px" style="font-family:'Calibri', sans-serif;font-size:44.04px;fill:rgb(112,173,71);">m</text>
                    <text x="88.792px" y="46.94px" style="font-family:'Calibri', sans-serif;font-size:44.04px;fill:rgb(112,173,71);">e</text>
                    <text x="110.505px" y="46.94px" style="font-family:'Calibri', sans-serif;font-size:44.04px;fill:rgb(112,173,71);">r</text>
                    <text x="125.758px" y="46.94px" style="font-family:'Calibri', sans-serif;font-size:44.04px;fill:rgb(112,173,71);">_1</text>
                    <text x="170.013px" y="46.94px" style="font-family:'Calibri', sans-serif;font-size:44.04px;fill:rgb(112,173,71);">:</text>
                    <text x="191.317px" y="46.94px" style="font-family:'Calibri', sans-serif;font-size:44.04px;fill:rgb(112,173,71);">S</text>
                    <text x="211.252px" y="46.94px" style="font-family:'Calibri', sans-serif;font-size:44.04px;fill:rgb(112,173,71);">e<tspan x="232.965px " y="46.94px ">r</tspan></text>
                    <text x="248.527px" y="46.94px" style="font-family:'Calibri', sans-serif;font-size:44.04px;fill:rgb(112,173,71);">v</text>
                    <text x="267.968px" y="46.94px" style="font-family:'Calibri', sans-serif;font-size:44.04px;fill:rgb(112,173,71);">i</text>
                    <text x="277.675px" y="46.94px" style="font-family:'Calibri', sans-serif;font-size:44.04px;fill:rgb(112,173,71);">s</text>
                    <text x="304.586px" y="46.94px" style="font-family:'Calibri', sans-serif;font-size:44.04px;fill:rgb(112,173,71);">z</text>
                    <text x="321.051px" y="46.94px" style="font-family:'Calibri', sans-serif;font-size:44.04px;fill:rgb(112,173,71);">a</text>
                    <text x="351.866px" y="46.94px" style="font-family:'Calibri', sans-serif;font-size:44.04px;fill:rgb(112,173,71);">č</text>
                    <text x="370.588px" y="46.94px" style="font-family:'Calibri', sans-serif;font-size:44.04px;fill:rgb(112,173,71);">u</text>
                    <text x="393.527px" y="46.94px" style="font-family:'Calibri', sans-serif;font-size:44.04px;fill:rgb(112,173,71);">v</text>
                    <text x="412.273px" y="46.94px" style="font-family:'Calibri', sans-serif;font-size:44.04px;fill:rgb(112,173,71);">a</text>
                    <text x="432.968px" y="46.94px" style="font-family:'Calibri', sans-serif;font-size:44.04px;fill:rgb(112,173,71);">n</text>
                    <text x="455.906px" y="46.94px" style="font-family:'Calibri', sans-serif;font-size:44.04px;fill:rgb(112,173,71);">j</text>
                    <text x="466.043px" y="46.94px" style="font-family:'Calibri', sans-serif;font-size:44.04px;fill:rgb(112,173,71);">e</text>
                    <text x="497.753px" y="46.94px" style="font-family:'Calibri', sans-serif;font-size:44.04px;fill:rgb(112,173,71);">p</text>
                    <text x="520.691px" y="46.94px" style="font-family:'Calibri', sans-serif;font-size:44.04px;fill:rgb(112,173,71);">o</text>
                    <text x="543.615px" y="46.94px" style="font-family:'Calibri', sans-serif;font-size:44.04px;fill:rgb(112,173,71);">d</text>
                    <text x="566.553px" y="46.94px" style="font-family:'Calibri', sans-serif;font-size:44.04px;fill:rgb(112,173,71);">a</text>
                    <text x="586.84px" y="46.94px" style="font-family:'Calibri', sans-serif;font-size:44.04px;fill:rgb(112,173,71);">t</text>
                    <text x="600.754px" y="46.94px" style="font-family:'Calibri', sans-serif;font-size:44.04px;fill:rgb(112,173,71);">a</text>
                    <text x="621.449px" y="46.94px" style="font-family:'Calibri', sans-serif;font-size:44.04px;fill:rgb(112,173,71);">k</text>
                    <text x="640.067px" y="46.94px" style="font-family:'Calibri', sans-serif;font-size:44.04px;fill:rgb(112,173,71);">a</text>
                    <text x="17.496px" y="110.71px" style="font-family:'ArialMT', 'Arial', sans-serif;font-size:26.04px;">•</text>
                    <text x="35.511px" y="110.71px" style="font-family:'Calibri', sans-serif;font-size:26.04px;">Nap</text>
                    <text x="78.475px" y="110.71px" style="font-family:'Calibri', sans-serif;font-size:26.04px;">r</text>
                    <text x="87.119px" y="110.71px" style="font-family:'Calibri', sans-serif;font-size:26.04px;">a<tspan x="99.16px 110.921px " y="110.71px 110.71px ">vi</tspan>ćemo</text>
                    <text x="181.04px" y="110.71px" style="font-family:'Calibri', sans-serif;font-size:26.04px;">ser<tspan x="213.501px 225.262px " y="110.71px 110.71px ">vi</tspan>s</text>
                    <text x="247.188px" y="110.71px" style="font-family:'Calibri-Italic', 'Calibri', sans-serif;font-style:italic;font-size:26.04px;">Win</text>
                    <text x="289.732px" y="110.71px" style="font-family:'Calibri-Italic', 'Calibri', sans-serif;font-style:italic;font-size:26.04px;">e</text>
                    <text x="302.267px" y="110.71px" style="font-family:'Calibri-Italic', 'Calibri', sans-serif;font-style:italic;font-size:26.04px;">Ser<tspan x="335.643px 347.252px " y="110.71px 110.71px ">vi</tspan></text>
                    <text x="353.228px" y="110.71px" style="font-family:'Calibri-Italic', 'Calibri', sans-serif;font-style:italic;font-size:26.04px;">c</text>
                    <text x="363.996px" y="110.71px" style="font-family:'Calibri-Italic', 'Calibri', sans-serif;font-style:italic;font-size:26.04px;">e</text>
                    <text x="53.496px" y="137.83px" style="font-family:'ArialMT', 'Arial', sans-serif;font-size:21.96px;">•</text>
                    <text x="71.496px" y="137.83px" style="font-family:'Calibri', sans-serif;font-size:21.96px;">Unut<tspan x="115.748px 126.267px " y="137.83px 137.83px ">ar</tspan></text>
                    <path d="M297.184,127.633C297.398,127.633 297.545,127.681 297.623,127.778C297.702,127.874 297.741,128.015 297.741,128.201L297.741,137.562C297.741,137.619 297.727,137.667 297.699,137.707C297.67,137.746 297.622,137.78 297.554,137.809C297.486,137.837 297.395,137.859 297.28,137.873C297.166,137.887 297.027,137.894 296.862,137.894C296.683,137.894 296.537,137.887 296.423,137.873C296.308,137.859 296.217,137.837 296.149,137.809C296.081,137.78 296.033,137.746 296.004,137.707C295.976,137.667 295.961,137.619 295.961,137.562L295.961,129.102L290.975,129.102L290.975,134.485C290.975,135.149 291.074,135.652 291.27,135.991C291.467,136.331 291.819,136.5 292.326,136.5C292.491,136.5 292.637,136.484 292.766,136.452C292.895,136.42 293.009,136.386 293.109,136.35C293.209,136.315 293.295,136.281 293.367,136.248C293.438,136.216 293.502,136.2 293.56,136.2C293.595,136.2 293.629,136.209 293.661,136.227C293.694,136.245 293.719,136.279 293.737,136.329C293.754,136.379 293.77,136.447 293.785,136.533C293.799,136.618 293.806,136.726 293.806,136.854C293.806,137.062 293.792,137.224 293.763,137.342C293.735,137.46 293.692,137.549 293.635,137.61C293.577,137.671 293.492,137.726 293.377,137.776C293.263,137.826 293.132,137.868 292.986,137.9C292.839,137.932 292.684,137.959 292.519,137.98C292.355,138.002 292.191,138.012 292.026,138.012C291.526,138.012 291.097,137.946 290.74,137.814C290.382,137.682 290.089,137.482 289.86,137.213C289.632,136.945 289.465,136.606 289.362,136.195C289.258,135.784 289.206,135.299 289.206,134.742L289.206,129.102L287.855,129.102C287.748,129.102 287.662,129.045 287.598,128.93C287.533,128.816 287.501,128.63 287.501,128.373C287.501,128.237 287.51,128.122 287.528,128.029C287.546,127.937 287.569,127.86 287.598,127.799C287.626,127.738 287.664,127.695 287.71,127.67C287.757,127.645 287.809,127.633 287.866,127.633L289.206,127.633L289.206,125.338C289.206,125.288 289.219,125.242 289.244,125.199C289.269,125.156 289.315,125.118 289.383,125.086C289.451,125.054 289.542,125.031 289.657,125.016C289.771,125.002 289.914,124.995 290.085,124.995C290.264,124.995 290.411,125.002 290.525,125.016C290.639,125.031 290.729,125.054 290.793,125.086C290.857,125.118 290.904,125.156 290.933,125.199C290.961,125.242 290.975,125.288 290.975,125.338L290.975,127.633L297.184,127.633ZM297.945,124.652C297.945,125.066 297.867,125.349 297.709,125.499C297.552,125.649 297.262,125.724 296.841,125.724C296.426,125.724 296.142,125.651 295.988,125.504C295.835,125.358 295.758,125.081 295.758,124.673C295.758,124.259 295.836,123.976 295.994,123.826C296.151,123.676 296.44,123.601 296.862,123.601C297.277,123.601 297.561,123.674 297.715,123.821C297.868,123.967 297.945,124.244 297.945,124.652Z"/>
                    <text x="138.783px" y="137.83px" style="font-family:'Calibri', sans-serif;font-size:21.96px;">njeg<tspan x="176.43px 186.949px " y="137.83px 137.83px ">a </tspan>ćemo <tspan x="246.412px " y="137.83px ">č</tspan>uv<tspan x="276.832px " y="137.83px ">a</tspan></text>
                    <text x="304.293px" y="137.83px" style="font-family:'Calibri', sans-serif;font-size:21.96px;">lis<tspan x="322.714px 330.07px " y="137.83px 137.83px ">tu</tspan></text>
                    <text x="346.57px" y="137.83px" style="font-family:'Calibri', sans-serif;font-size:21.96px;">vina</text>
                    <text x="53.496px" y="163.87px" style="font-family:'ArialMT', 'Arial', sans-serif;font-size:21.96px;">•</text>
                    <text x="71.496px" y="163.87px" style="font-family:'Calibri', sans-serif;font-size:21.96px;">Napr<tspan x="114.933px 125.088px 135.006px " y="163.87px 163.87px 163.87px ">avi</tspan>će</text>
                    <text x="160.258px" y="163.87px" style="font-family:'Calibri', sans-serif;font-size:21.96px;">m</text>
                    <text x="177.8px" y="163.87px" style="font-family:'Calibri', sans-serif;font-size:21.96px;">o</text>
                    <text x="194.445px" y="163.87px" style="font-family:'Calibri', sans-serif;font-size:21.96px;">m</text>
                    <text x="211.887px" y="163.87px" style="font-family:'Calibri', sans-serif;font-size:21.96px;">e</text>
                    <text x="222.695px" y="163.87px" style="font-family:'Calibri', sans-serif;font-size:21.96px;">t</text>
                    <text x="229.737px" y="163.87px" style="font-family:'Calibri', sans-serif;font-size:21.96px;">ode</text>
                    <text x="269.202px" y="163.87px" style="font-family:'Calibri', sans-serif;font-size:21.96px;">z<tspan x="277.512px 288.031px " y="163.87px 163.87px ">a </tspan>manipulaciju</text>
                    <text x="412.089px" y="163.87px" style="font-family:'Calibri', sans-serif;font-size:21.96px;">o</text>
                    <text x="423.573px" y="163.87px" style="font-family:'Calibri', sans-serif;font-size:21.96px;">v</text>
                    <text x="433.288px" y="163.87px" style="font-family:'Calibri', sans-serif;font-size:21.96px;">om</text>
                    <text x="467.576px" y="163.87px" style="font-family:'Calibri', sans-serif;font-size:21.96px;">lis</text>
                    <text x="485.998px" y="163.87px" style="font-family:'Calibri', sans-serif;font-size:21.96px;">t</text>
                    <text x="493.139px" y="163.87px" style="font-family:'Calibri', sans-serif;font-size:21.96px;">om</text>
                    <text x="89.496px" y="187.87px" style="font-family:'ArialMT', 'Arial', sans-serif;font-size:18.96px;">•</text>
                    <text x="107.5px" y="187.87px" style="font-family:'Calibri', sans-serif;font-size:18.96px;">g<tspan x="116.267px 125.599px 131.95px " y="187.87px 187.87px 187.87px ">etA</tspan></text>
                    <text x="142.92px" y="187.87px" style="font-family:'Calibri', sans-serif;font-size:18.96px;">l</text>
                    <text x="147.172px" y="187.87px" style="font-family:'Calibri', sans-serif;font-size:18.96px;">l</text>
                    <text x="156.099px" y="187.87px" style="font-family:'Calibri', sans-serif;font-size:18.96px;">– vr<tspan x="184.699px 193.781px 201.64px 210.722px " y="187.87px 187.87px 187.87px 187.87px ">aća </tspan>celu <tspan x="251.23px " y="187.87px ">l</tspan></text>
                    <text x="255.581px" y="187.87px" style="font-family:'Calibri', sans-serif;font-size:18.96px;">i</text>
                    <text x="259.832px" y="187.87px" style="font-family:'Calibri', sans-serif;font-size:18.96px;">s<tspan x="267.035px 273.386px " y="187.87px 187.87px ">tu</tspan> v</text>
                    <text x="296.283px" y="187.87px" style="font-family:'Calibri', sans-serif;font-size:18.96px;">i</text>
                    <text x="300.534px" y="187.87px" style="font-family:'Calibri', sans-serif;font-size:18.96px;">na</text>
                    <text x="89.496px" y="211.18px" style="font-family:'ArialMT', 'Arial', sans-serif;font-size:18.984px;">•</text>
                    <text x="107.5px" y="211.18px" style="font-family:'Calibri-Italic', 'Calibri', sans-serif;font-style:italic;font-size:18.984px;">ad</text>
                    <text x="127.022px" y="211.18px" style="font-family:'Calibri-Italic', 'Calibri', sans-serif;font-style:italic;font-size:18.984px;">d</text>
                    <text x="136.682px" y="211.18px" style="font-family:'Calibri', sans-serif;font-size:18.984px;">(</text>
                    <text x="142.439px" y="211.18px" style="font-family:'Calibri-Italic', 'Calibri', sans-serif;font-style:italic;font-size:18.984px;">n</text>
                    <text x="152.2px" y="211.18px" style="font-family:'Calibri-Italic', 'Calibri', sans-serif;font-style:italic;font-size:18.984px;">e</text>
                    <text x="161.054px" y="211.18px" style="font-family:'Calibri-Italic', 'Calibri', sans-serif;font-style:italic;font-size:18.984px;">wWi</text>
                    <text x="195.88px" y="211.18px" style="font-family:'Calibri-Italic', 'Calibri', sans-serif;font-style:italic;font-size:18.984px;">n</text>
                    <text x="205.54px" y="211.18px" style="font-family:'Calibri-Italic', 'Calibri', sans-serif;font-style:italic;font-size:18.984px;">e</text>
                    <text x="219.155px" y="211.18px" style="font-family:'Calibri', sans-serif;font-size:18.984px;">:</text>
                    <text x="224.235px" y="211.18px" style="font-family:'Calibri-Italic', 'Calibri', sans-serif;font-style:italic;font-size:18.984px;">Wi</text>
                    <text x="245.49px" y="211.18px" style="font-family:'Calibri-Italic', 'Calibri', sans-serif;font-style:italic;font-size:18.984px;">n</text>
                    <text x="255.151px" y="211.18px" style="font-family:'Calibri-Italic', 'Calibri', sans-serif;font-style:italic;font-size:18.984px;">e</text>
                    <text x="264.217px" y="211.18px" style="font-family:'Calibri', sans-serif;font-size:18.984px;">) <tspan x="274.522px " y="211.18px ">–</tspan></text>
                    <text x="288.261px" y="211.18px" style="font-family:'Calibri', sans-serif;font-size:18.984px;">do</text>
                    <text x="308.247px" y="211.18px" style="font-family:'Calibri', sans-serif;font-size:18.984px;">d</text>
                    <text x="318.121px" y="211.18px" style="font-family:'Calibri', sans-serif;font-size:18.984px;">aje <tspan x="345.751px " y="211.18px ">p</tspan></text>
                    <text x="355.725px" y="211.18px" style="font-family:'Calibri', sans-serif;font-size:18.984px;">r</text>
                    <text x="361.938px" y="211.18px" style="font-family:'Calibri', sans-serif;font-size:18.984px;">os</text>
                    <text x="379.374px" y="211.18px" style="font-family:'Calibri', sans-serif;font-size:18.984px;">l</text>
                    <text x="383.63px" y="211.18px" style="font-family:'Calibri', sans-serif;font-size:18.984px;">eđeno</text>
                    <text x="437.53px" y="211.18px" style="font-family:'Calibri-Italic', 'Calibri', sans-serif;font-style:italic;font-size:18.984px;">n</text>
                    <text x="447.291px" y="211.18px" style="font-family:'Calibri-Italic', 'Calibri', sans-serif;font-style:italic;font-size:18.984px;">e</text>
                    <text x="456.146px" y="211.18px" style="font-family:'Calibri-Italic', 'Calibri', sans-serif;font-style:italic;font-size:18.984px;">wWi</text>
                    <text x="490.971px" y="211.18px" style="font-family:'Calibri-Italic', 'Calibri', sans-serif;font-style:italic;font-size:18.984px;">n</text>
                    <text x="500.632px" y="211.18px" style="font-family:'Calibri-Italic', 'Calibri', sans-serif;font-style:italic;font-size:18.984px;">e</text>
                    <text x="514.247px" y="211.18px" style="font-family:'Calibri', sans-serif;font-size:18.984px;">v</text>
                    <text x="522.721px" y="211.18px" style="font-family:'Calibri', sans-serif;font-size:18.984px;">in</text>
                    <text x="537.052px" y="211.18px" style="font-family:'Calibri', sans-serif;font-size:18.984px;">o</text>
                    <text x="551.512px" y="211.18px" style="font-family:'Calibri', sans-serif;font-size:18.984px;"><tspan x="551.512px " y="211.18px ">u</tspan></text>
                    <text x="565.824px" y="211.18px" style="font-family:'Calibri', sans-serif;font-size:18.984px;">l</text>
                    <text x="570.18px" y="211.18px" style="font-family:'Calibri', sans-serif;font-size:18.984px;">i</text>
                    <text x="574.437px" y="211.18px" style="font-family:'Calibri', sans-serif;font-size:18.984px;">s<tspan x="581.649px 588.008px " y="211.18px 211.18px ">tu</tspan></text>
                    <text x="602.319px" y="211.18px" style="font-family:'Calibri', sans-serif;font-size:18.984px;">v</text>
                    <text x="610.793px" y="211.18px" style="font-family:'Calibri', sans-serif;font-size:18.984px;">ina</text>
                    <text x="17.496px" y="244.42px" style="font-family:'ArialMT', 'Arial', sans-serif;font-size:26.04px;">•</text>
                    <text x="35.511px" y="244.42px" style="font-family:'Calibri', sans-serif;font-size:26.04px;">U</text>
                    <text x="57.922px" y="244.42px" style="font-family:'Calibri-Italic', 'Calibri', sans-serif;font-style:italic;font-size:26.04px;">Win</text>
                    <text x="100.466px" y="244.42px" style="font-family:'Calibri-Italic', 'Calibri', sans-serif;font-style:italic;font-size:26.04px;">e</text>
                    <text x="113.001px" y="244.42px" style="font-family:'Calibri-Italic', 'Calibri', sans-serif;font-style:italic;font-size:26.04px;">Lis<tspan x="139.766px 148.488px " y="244.42px 244.42px ">tC</tspan>ompone</text>
                    <text x="248.63px" y="244.42px" style="font-family:'Calibri-Italic', 'Calibri', sans-serif;font-style:italic;font-size:26.04px;">n<tspan x="261.865px " y="244.42px ">t</tspan></text>
                    <text x="270.687px" y="244.42px" style="font-family:'Calibri', sans-serif;font-size:26.04px;">:</text>
                    <text x="53.496px" y="271.54px" style="font-family:'ArialMT', 'Arial', sans-serif;font-size:21.96px;">•</text>
                    <text x="71.496px" y="271.54px" style="font-family:'Calibri', sans-serif;font-size:21.96px;">K<tspan x="82.508px 94.089px " y="271.54px 271.54px ">or</tspan>i</text>
                    <text x="106.784px" y="271.54px" style="font-family:'Calibri', sans-serif;font-size:21.96px;">s</text>
                    <path d="M125.263,261.343C125.477,261.343 125.624,261.391 125.703,261.488C125.781,261.584 125.82,261.725 125.82,261.911L125.82,271.272C125.82,271.329 125.806,271.377 125.778,271.417C125.749,271.456 125.701,271.49 125.633,271.519C125.565,271.547 125.474,271.569 125.359,271.583C125.245,271.597 125.106,271.604 124.941,271.604C124.763,271.604 124.616,271.597 124.502,271.583C124.387,271.569 124.296,271.547 124.228,271.519C124.16,271.49 124.112,271.456 124.083,271.417C124.055,271.377 124.041,271.329 124.041,271.272L124.041,262.812L119.054,262.812L119.054,268.195C119.054,268.859 119.153,269.362 119.349,269.701C119.546,270.041 119.898,270.21 120.406,270.21C120.57,270.21 120.716,270.194 120.845,270.162C120.974,270.13 121.088,270.096 121.188,270.06C121.288,270.025 121.374,269.991 121.446,269.958C121.517,269.926 121.581,269.91 121.639,269.91C121.674,269.91 121.708,269.919 121.741,269.937C121.773,269.955 121.798,269.989 121.816,270.039C121.833,270.089 121.85,270.157 121.864,270.243C121.878,270.328 121.885,270.436 121.885,270.564C121.885,270.772 121.871,270.934 121.842,271.052C121.814,271.17 121.771,271.259 121.714,271.32C121.657,271.381 121.571,271.436 121.456,271.486C121.342,271.536 121.212,271.578 121.065,271.61C120.918,271.642 120.763,271.669 120.599,271.69C120.434,271.712 120.27,271.722 120.105,271.722C119.605,271.722 119.176,271.656 118.819,271.524C118.461,271.392 118.168,271.192 117.939,270.923C117.711,270.655 117.544,270.316 117.441,269.905C117.337,269.494 117.285,269.009 117.285,268.452L117.285,262.812L115.934,262.812C115.827,262.812 115.741,262.755 115.677,262.64C115.613,262.526 115.58,262.34 115.58,262.083C115.58,261.947 115.589,261.832 115.607,261.739C115.625,261.647 115.648,261.57 115.677,261.509C115.705,261.448 115.743,261.405 115.789,261.38C115.836,261.355 115.888,261.343 115.945,261.343L117.285,261.343L117.285,259.048C117.285,258.998 117.298,258.952 117.323,258.909C117.348,258.866 117.394,258.828 117.462,258.796C117.53,258.764 117.621,258.741 117.736,258.726C117.85,258.712 117.993,258.705 118.164,258.705C118.343,258.705 118.49,258.712 118.604,258.726C118.719,258.741 118.808,258.764 118.872,258.796C118.937,258.828 118.983,258.866 119.012,258.909C119.04,258.952 119.054,258.998 119.054,259.048L119.054,261.343L125.263,261.343ZM126.024,258.362C126.024,258.776 125.946,259.059 125.788,259.209C125.631,259.359 125.342,259.434 124.92,259.434C124.505,259.434 124.221,259.361 124.067,259.214C123.914,259.068 123.837,258.791 123.837,258.383C123.837,257.969 123.915,257.686 124.073,257.536C124.23,257.386 124.519,257.311 124.941,257.311C125.356,257.311 125.64,257.384 125.794,257.531C125.947,257.677 126.024,257.954 126.024,258.362Z"/>
                    <text x="127.461px" y="271.54px" style="font-family:'Calibri', sans-serif;font-size:21.96px;">ć</text>
                    <text x="136.647px" y="271.54px" style="font-family:'Calibri', sans-serif;font-size:21.96px;">e</text>
                    <text x="147.573px" y="271.54px" style="font-family:'Calibri', sans-serif;font-size:21.96px;">m</text>
                    <text x="165.216px" y="271.54px" style="font-family:'Calibri', sans-serif;font-size:21.96px;">o me</text>
                    <text x="210.161px" y="271.54px" style="font-family:'Calibri', sans-serif;font-size:21.96px;">t</text>
                    <text x="217.202px" y="271.54px" style="font-family:'Calibri', sans-serif;font-size:21.96px;">odu</text>
                    <text x="257.125px" y="271.54px" style="font-family:'Calibri-Italic', 'Calibri', sans-serif;font-style:italic;font-size:21.96px;">ge<tspan x="278.784px 286.14px " y="271.54px 271.54px ">tA</tspan>ll WineS</text>
                    <text x="370.234px" y="271.54px" style="font-family:'Calibri-Italic', 'Calibri', sans-serif;font-style:italic;font-size:21.96px;">e</text>
                    <text x="380.621px" y="271.54px" style="font-family:'Calibri-Italic', 'Calibri', sans-serif;font-style:italic;font-size:21.96px;">r<tspan x="388.352px 398.141px 403.181px 412.177px " y="271.54px 271.54px 271.54px 271.54px ">vice</tspan></text>
                    <text x="422.664px" y="271.54px" style="font-family:'Calibri', sans-serif;font-size:21.96px;">a da dob</text>
                    <text x="499.924px" y="271.54px" style="font-family:'Calibri', sans-serif;font-size:21.96px;">a</text>
                    <text x="510.178px" y="271.54px" style="font-family:'Calibri', sans-serif;font-size:21.96px;">vimo</text>
                    <text x="559.071px" y="271.54px" style="font-family:'Calibri', sans-serif;font-size:21.96px;">vina</text>
                    <text x="600.948px" y="271.54px" style="font-family:'Calibri', sans-serif;font-size:21.96px;">k<tspan x="610.191px 621.772px " y="271.54px 271.54px ">oj</tspan>a</text>
                    <text x="642.559px" y="271.54px" style="font-family:'Calibri', sans-serif;font-size:21.96px;">t</text>
                    <text x="649.815px" y="271.54px" style="font-family:'Calibri', sans-serif;font-size:21.96px;">r</text>
                    <text x="657.281px" y="271.54px" style="font-family:'Calibri', sans-serif;font-size:21.96px;">eba</text>
                    <path d="M144.517,282.463C144.732,282.463 144.878,282.511 144.957,282.608C145.036,282.704 145.075,282.845 145.075,283.031L145.075,292.392C145.075,292.449 145.061,292.497 145.032,292.537C145.003,292.576 144.955,292.61 144.887,292.639C144.819,292.667 144.728,292.689 144.614,292.703C144.499,292.717 144.36,292.724 144.196,292.724C144.017,292.724 143.87,292.717 143.756,292.703C143.642,292.689 143.55,292.667 143.483,292.639C143.415,292.61 143.366,292.576 143.338,292.537C143.309,292.497 143.295,292.449 143.295,292.392L143.295,283.932L138.309,283.932L138.309,289.315C138.309,289.979 138.407,290.482 138.604,290.821C138.8,291.161 139.152,291.33 139.66,291.33C139.824,291.33 139.971,291.314 140.1,291.282C140.228,291.25 140.343,291.216 140.443,291.18C140.543,291.145 140.629,291.111 140.7,291.078C140.772,291.046 140.836,291.03 140.893,291.03C140.929,291.03 140.963,291.039 140.995,291.057C141.027,291.075 141.052,291.109 141.07,291.159C141.088,291.209 141.104,291.277 141.118,291.363C141.133,291.448 141.14,291.556 141.14,291.684C141.14,291.892 141.125,292.054 141.097,292.172C141.068,292.29 141.025,292.379 140.968,292.44C140.911,292.501 140.825,292.556 140.711,292.606C140.596,292.656 140.466,292.698 140.319,292.73C140.173,292.762 140.017,292.789 139.853,292.81C139.689,292.832 139.524,292.842 139.36,292.842C138.859,292.842 138.43,292.776 138.073,292.644C137.716,292.512 137.422,292.312 137.194,292.043C136.965,291.775 136.799,291.436 136.695,291.025C136.591,290.614 136.54,290.129 136.54,289.572L136.54,283.932L135.189,283.932C135.081,283.932 134.996,283.875 134.931,283.76C134.867,283.646 134.835,283.46 134.835,283.203C134.835,283.067 134.844,282.952 134.862,282.859C134.879,282.767 134.903,282.69 134.931,282.629C134.96,282.568 134.997,282.525 135.044,282.5C135.09,282.475 135.142,282.463 135.199,282.463L136.54,282.463L136.54,280.168C136.54,280.118 136.552,280.072 136.577,280.029C136.602,279.986 136.649,279.948 136.717,279.916C136.784,279.884 136.876,279.861 136.99,279.846C137.104,279.832 137.247,279.825 137.419,279.825C137.598,279.825 137.744,279.832 137.859,279.846C137.973,279.861 138.062,279.884 138.127,279.916C138.191,279.948 138.237,279.986 138.266,280.029C138.295,280.072 138.309,280.118 138.309,280.168L138.309,282.463L144.517,282.463ZM145.279,279.482C145.279,279.896 145.2,280.179 145.043,280.329C144.885,280.479 144.596,280.554 144.174,280.554C143.76,280.554 143.475,280.481 143.322,280.334C143.168,280.188 143.091,279.911 143.091,279.503C143.091,279.089 143.17,278.806 143.327,278.656C143.484,278.506 143.774,278.431 144.196,278.431C144.61,278.431 144.894,278.504 145.048,278.651C145.202,278.797 145.279,279.074 145.279,279.482Z"/>
                    <text x="71.496px" y="292.66px" style="font-family:'Calibri', sans-serif;font-size:21.96px;">prik<tspan x="105.337px 115.856px 124.166px " y="292.66px 292.66px 292.66px ">aza</tspan></text>
                    <text x="151.629px" y="292.66px" style="font-family:'Calibri', sans-serif;font-size:21.96px;">u t<tspan x="175.268px 185.787px " y="292.66px 292.66px ">ab</tspan>eli</text>
                    <text x="17.496px" y="326.64px" style="font-family:'ArialMT', 'Arial', sans-serif;font-size:26.064px;">•</text>
                    <text x="35.528px" y="326.64px" style="font-family:'Calibri', sans-serif;font-size:26.064px;">U</text>
                    <text x="57.961px" y="326.64px" style="font-family:'Calibri-Italic', 'Calibri', sans-serif;font-style:italic;font-size:26.064px;">E<tspan x="70.216px 83.617px " y="326.64px 326.64px ">di</tspan>tWineCompone</text>
                    <text x="253.593px" y="326.64px" style="font-family:'Calibri-Italic', 'Calibri', sans-serif;font-style:italic;font-size:26.064px;">n</text>
                    <text x="266.84px" y="326.64px" style="font-family:'Calibri-Italic', 'Calibri', sans-serif;font-style:italic;font-size:26.064px;">t</text>
                    <text x="275.57px" y="326.64px" style="font-family:'Calibri', sans-serif;font-size:26.064px;">:</text>
                    <text x="53.496px" y="353.76px" style="font-family:'ArialMT', 'Arial', sans-serif;font-size:21.96px;">•</text>
                    <text x="71.496px" y="353.76px" style="font-family:'Calibri', sans-serif;font-size:21.96px;">K<tspan x="82.508px 94.089px " y="353.76px 353.76px ">or</tspan>i</text>
                    <text x="106.784px" y="353.76px" style="font-family:'Calibri', sans-serif;font-size:21.96px;">s</text>
                    <path d="M125.263,343.563C125.477,343.563 125.624,343.611 125.703,343.708C125.781,343.804 125.82,343.945 125.82,344.131L125.82,353.492C125.82,353.549 125.806,353.597 125.778,353.637C125.749,353.676 125.701,353.71 125.633,353.739C125.565,353.767 125.474,353.789 125.359,353.803C125.245,353.817 125.106,353.824 124.941,353.824C124.763,353.824 124.616,353.817 124.502,353.803C124.387,353.789 124.296,353.767 124.228,353.739C124.16,353.71 124.112,353.676 124.083,353.637C124.055,353.597 124.041,353.549 124.041,353.492L124.041,345.032L119.054,345.032L119.054,350.415C119.054,351.079 119.153,351.582 119.349,351.921C119.546,352.261 119.898,352.43 120.406,352.43C120.57,352.43 120.716,352.414 120.845,352.382C120.974,352.35 121.088,352.316 121.188,352.28C121.288,352.245 121.374,352.211 121.446,352.178C121.517,352.146 121.581,352.13 121.639,352.13C121.674,352.13 121.708,352.139 121.741,352.157C121.773,352.175 121.798,352.209 121.816,352.259C121.833,352.309 121.85,352.377 121.864,352.463C121.878,352.548 121.885,352.656 121.885,352.784C121.885,352.992 121.871,353.154 121.842,353.272C121.814,353.39 121.771,353.479 121.714,353.54C121.657,353.601 121.571,353.656 121.456,353.706C121.342,353.756 121.212,353.798 121.065,353.83C120.918,353.862 120.763,353.889 120.599,353.91C120.434,353.932 120.27,353.942 120.105,353.942C119.605,353.942 119.176,353.876 118.819,353.744C118.461,353.612 118.168,353.412 117.939,353.143C117.711,352.875 117.544,352.536 117.441,352.125C117.337,351.714 117.285,351.229 117.285,350.672L117.285,345.032L115.934,345.032C115.827,345.032 115.741,344.975 115.677,344.86C115.613,344.746 115.58,344.56 115.58,344.303C115.58,344.167 115.589,344.052 115.607,343.959C115.625,343.867 115.648,343.79 115.677,343.729C115.705,343.668 115.743,343.625 115.789,343.6C115.836,343.575 115.888,343.563 115.945,343.563L117.285,343.563L117.285,341.268C117.285,341.218 117.298,341.172 117.323,341.129C117.348,341.086 117.394,341.048 117.462,341.016C117.53,340.984 117.621,340.961 117.736,340.946C117.85,340.932 117.993,340.925 118.164,340.925C118.343,340.925 118.49,340.932 118.604,340.946C118.719,340.961 118.808,340.984 118.872,341.016C118.937,341.048 118.983,341.086 119.012,341.129C119.04,341.172 119.054,341.218 119.054,341.268L119.054,343.563L125.263,343.563ZM126.024,340.582C126.024,340.996 125.946,341.279 125.788,341.429C125.631,341.579 125.342,341.654 124.92,341.654C124.505,341.654 124.221,341.581 124.067,341.434C123.914,341.288 123.837,341.011 123.837,340.603C123.837,340.189 123.915,339.906 124.073,339.756C124.23,339.606 124.519,339.531 124.941,339.531C125.356,339.531 125.64,339.604 125.794,339.751C125.947,339.897 126.024,340.174 126.024,340.582Z"/>
                    <text x="127.461px" y="353.76px" style="font-family:'Calibri', sans-serif;font-size:21.96px;">ć</text>
                    <text x="136.647px" y="353.76px" style="font-family:'Calibri', sans-serif;font-size:21.96px;">e</text>
                    <text x="147.573px" y="353.76px" style="font-family:'Calibri', sans-serif;font-size:21.96px;">m</text>
                    <text x="165.216px" y="353.76px" style="font-family:'Calibri', sans-serif;font-size:21.96px;">o me</text>
                    <text x="210.161px" y="353.76px" style="font-family:'Calibri', sans-serif;font-size:21.96px;">t</text>
                    <text x="217.202px" y="353.76px" style="font-family:'Calibri', sans-serif;font-size:21.96px;">odu</text>
                    <text x="257.125px" y="353.76px" style="font-family:'Calibri-Italic', 'Calibri', sans-serif;font-style:italic;font-size:21.96px;">add</text>
                    <text x="295.86px" y="353.76px" style="font-family:'Calibri-Italic', 'Calibri', sans-serif;font-style:italic;font-size:21.96px;">WineS</text>
                    <text x="352.154px" y="353.76px" style="font-family:'Calibri-Italic', 'Calibri', sans-serif;font-style:italic;font-size:21.96px;">e</text>
                    <text x="362.541px" y="353.76px" style="font-family:'Calibri-Italic', 'Calibri', sans-serif;font-style:italic;font-size:21.96px;">r</text>
                    <text x="370.372px" y="353.76px" style="font-family:'Calibri-Italic', 'Calibri', sans-serif;font-style:italic;font-size:21.96px;">vic<tspan x="394.198px " y="353.76px ">e</tspan></text>
                    <text x="404.684px" y="353.76px" style="font-family:'Calibri', sans-serif;font-size:21.96px;">a da dod</text>
                    <text x="481.944px" y="353.76px" style="font-family:'Calibri', sans-serif;font-size:21.96px;">a</text>
                    <text x="492.413px" y="353.76px" style="font-family:'Calibri', sans-serif;font-size:21.96px;">mo n</text>
                    <text x="538.087px" y="353.76px" style="font-family:'Calibri', sans-serif;font-size:21.96px;">o</text>
                    <text x="549.671px" y="353.76px" style="font-family:'Calibri', sans-serif;font-size:21.96px;">v</text>
                    <text x="559.286px" y="353.76px" style="font-family:'Calibri', sans-serif;font-size:21.96px;">o vin</text>
                    <text x="602.376px" y="353.76px" style="font-family:'Calibri', sans-serif;font-size:21.96px;">o</text>
                    <text x="618.869px" y="353.76px" style="font-family:'Calibri', sans-serif;font-size:21.96px;">u l</text>
                    <text x="640.461px" y="353.76px" style="font-family:'Calibri', sans-serif;font-size:21.96px;">i</text>
                    <text x="645.4px" y="353.76px" style="font-family:'Calibri', sans-serif;font-size:21.96px;">s</text>
                    <text x="653.843px" y="353.76px" style="font-family:'Calibri', sans-serif;font-size:21.96px;">tu</text>
                    <text x="168.26px" y="401.26px" style="font-family:'Calibri-Italic', 'Calibri', sans-serif;font-style:italic;font-size:18px;fill:white;">WineLi</text>
                    <text x="217.962px" y="401.26px" style="font-family:'Calibri-Italic', 'Calibri', sans-serif;font-style:italic;font-size:18px;fill:white;">s</text>
                    <text x="224.615px" y="401.26px" style="font-family:'Calibri-Italic', 'Calibri', sans-serif;font-style:italic;font-size:18px;fill:white;">t</text>
                    <text x="157.34px" y="422.86px" style="font-family:'Calibri-Italic', 'Calibri', sans-serif;font-style:italic;font-size:18px;fill:white;">Componen<tspan x="235.642px " y="422.86px ">t</tspan></text>
                    <text x="189.86px" y="466.08px" style="font-family:'Calibri', sans-serif;font-size:18px;fill:white;">[</text>
                    <text x="203.649px" y="466.08px" style="font-family:'Calibri', sans-serif;font-size:18px;fill:white;">]</text>
                </g>
                <g>
                    <text x="487.58px" y="401.11px" style="font-family:'Calibri-Italic', 'Calibri', sans-serif;font-style:italic;font-size:18px;fill:white;">E<tspan x="496.044px " y="401.11px ">d</tspan></text>
                    <text x="505.299px" y="401.11px" style="font-family:'Calibri-Italic', 'Calibri', sans-serif;font-style:italic;font-size:18px;fill:white;">i</text>
                    <text x="509.33px" y="401.11px" style="font-family:'Calibri-Italic', 'Calibri', sans-serif;font-style:italic;font-size:18px;fill:white;">tWine</text>
                    <text x="478.34px" y="422.71px" style="font-family:'Calibri-Italic', 'Calibri', sans-serif;font-style:italic;font-size:18px;fill:white;">Componen<tspan x="556.642px " y="422.71px ">t</tspan></text>
                    <text x="510.86px" y="465.936px" style="font-family:'Calibri', sans-serif;font-size:18px;fill:white;">[</text>
                    <text x="524.649px" y="465.936px" style="font-family:'Calibri', sans-serif;font-size:18px;fill:white;">]</text>
                </g>
                <g>
                    <text x="313.13px" y="446.28px" style="font-family:'Calibri', sans-serif;font-size:18px;fill:white;">Wi</text>
                    <text x="333.275px" y="446.28px" style="font-family:'Calibri', sans-serif;font-size:18px;fill:white;">n</text>
                    <text x="342.632px" y="446.28px" style="font-family:'Calibri', sans-serif;font-size:18px;fill:white;">eSer<tspan x="375.257px 383.386px " y="446.28px 446.28px ">vi</tspan>ce</text>
                    <text x="313.13px" y="466.08px" style="font-family:'ArialMT', 'Arial', sans-serif;font-size:15.96px;fill:white;">•</text>
                    <text x="340.13px" y="466.08px" style="font-family:'Calibri', sans-serif;font-size:15.96px;fill:white;">g</text>
                    <text x="347.642px" y="466.08px" style="font-family:'Calibri', sans-serif;font-size:15.96px;fill:white;">e</text>
                    <text x="355.383px" y="466.08px" style="font-family:'Calibri', sans-serif;font-size:15.96px;fill:white;">tAll</text>
                    <text x="313.13px" y="485.28px" style="font-family:'ArialMT', 'Arial', sans-serif;font-size:15.96px;fill:white;">•</text>
                    <text x="340.13px" y="485.28px" style="font-family:'Calibri', sans-serif;font-size:15.96px;fill:white;">add</text>
                </g>
                <g transform="matrix(1,0,0,1,0,383.783)">
                    <path d="M305.88,76.983L201.75,76.983L201.75,79.233L305.88,79.233L305.88,76.983ZM207.93,73.199L199.51,78.108L207.93,83.018C208.47,83.331 209.15,83.149 209.47,82.613C209.78,82.076 209.6,81.387 209.06,81.074L202.31,77.137L202.31,79.08L209.06,75.143C209.6,74.83 209.78,74.141 209.47,73.604C209.15,73.067 208.47,72.886 207.93,73.199Z" style="fill:rgb(237,125,49);fill-rule:nonzero;"/>
                </g>
                <g transform="matrix(1,0,0,1,0,383.783)">
                    <path d="M414.12,76.983L518.25,76.984L518.25,79.234L414.12,79.233L414.12,76.983ZM512.07,73.199L520.49,78.109L512.07,83.018C511.53,83.331 510.85,83.15 510.53,82.613C510.22,82.076 510.4,81.387 510.94,81.074L517.69,77.137L517.69,79.08L510.94,75.143C510.4,74.83 510.22,74.141 510.53,73.604C510.85,73.067 511.53,72.886 512.07,73.199Z" style="fill:rgb(237,125,49);fill-rule:nonzero;"/>
                </g>
            </g>
        </g>
    </g>
</svg>
